<svg id="圖層_1" data-name="圖層 1" xmlns="http://www.w3.org/2000/svg" viewBox="0 0 147.93 133.14"><defs><style>.cls-1{fill:#5a482e;}.cls-2{fill:#bf953e;}.cls-3{opacity:0.1;isolation:isolate;}.cls-4{fill:#efba50;}.cls-5{fill:#d69ef0;}.cls-6{fill:#bc81e2;}.cls-7{fill:#efc7ff;}.cls-8{fill:#f5bfb6;}.cls-9{fill:#e8a09c;}.cls-10{fill:#e28883;}.cls-11{fill:#37c4b3;}.cls-12{fill:#53e7d3;}.cls-13{fill:#b9f5ed;}.cls-14{fill:#fff;}.cls-15{fill:#a87b2c;}.cls-16{fill:#fdf276;}.cls-17{fill:#ffc753;}</style></defs><title>Treasure-Open</title><path class="cls-1" d="M117.15,136.16v9.16a1.56,1.56,0,0,0,1.56,1.56h10.76a1.56,1.56,0,0,0,1.56-1.56v-9.16H117.15Z" transform="translate(-7.67 -13.74)"/><path class="cls-1" d="M24.44,145.32A1.56,1.56,0,0,0,26,146.88H36.76a1.56,1.56,0,0,0,1.56-1.56v-9.16H24.44v9.16Z" transform="translate(-7.67 -13.74)"/><path class="cls-2" d="M91.67,25.07H63.79a1.56,1.56,0,0,0-1.56,1.56v7.32a1.56,1.56,0,0,0,1.56,1.56H91.67a1.56,1.56,0,0,0,1.56-1.56V26.63A1.56,1.56,0,0,0,91.67,25.07Z" transform="translate(-7.67 -13.74)"/><path class="cls-3" d="M123.67,145.32v-9.16h-6.53v9.16a1.56,1.56,0,0,0,1.56,1.56h6.53A1.56,1.56,0,0,1,123.67,145.32Z" transform="translate(-7.67 -13.74)"/><path class="cls-3" d="M30.87,145.32v-9.16H24.44v9.16A1.56,1.56,0,0,0,26,146.88h6.43A1.56,1.56,0,0,1,30.87,145.32Z" transform="translate(-7.67 -13.74)"/><path class="cls-3" d="M68.69,33.95V26.63a1.56,1.56,0,0,1,1.56-1.56H63.79a1.56,1.56,0,0,0-1.56,1.56v7.32a1.56,1.56,0,0,0,1.56,1.56h6.46A1.56,1.56,0,0,1,68.69,33.95Z" transform="translate(-7.67 -13.74)"/><path class="cls-4" d="M129.45,83.77a1.56,1.56,0,0,1-1.56,1.56H27.57A1.56,1.56,0,0,1,26,83.77V34a1.56,1.56,0,0,1,1.56-1.56H127.89A1.56,1.56,0,0,1,129.45,34V83.77h0Z" transform="translate(-7.67 -13.74)"/><path class="cls-3" d="M35.81,83.77V34a1.56,1.56,0,0,1,1.56-1.56h-9.8A1.56,1.56,0,0,0,26,34V83.77a1.56,1.56,0,0,0,1.56,1.56h9.8A1.56,1.56,0,0,1,35.81,83.77Z" transform="translate(-7.67 -13.74)"/><path class="cls-5" d="M52.39,86.69a1.93,1.93,0,0,1-1.56.55L23,84.46a2,2,0,0,1-1.73-1.56l-2.37-11.3a1.93,1.93,0,0,1,.52-1.77L35.54,53.75a1.93,1.93,0,0,1,1.77-.52l11.3,2.37a2,2,0,0,1,1.55,1.73l2.78,27.8A1.93,1.93,0,0,1,52.39,86.69Z" transform="translate(-7.67 -13.74)"/><path class="cls-6" d="M41.24,64.67l8.44-8.44a2,2,0,0,0-1.08-.63l-11.3-2.37a1.93,1.93,0,0,0-1,.05l2.83,13.49-6.68,6.68L19,70.62a1.94,1.94,0,0,0-.05,1l2.37,11.3A2,2,0,0,0,21.93,84l8.48-8.48,22,11.18Z" transform="translate(-7.67 -13.74)"/><polygon class="cls-7" points="19.82 48.06 22.7 61.8 33.58 50.93 19.83 48.05 19.82 48.06"/><path class="cls-3" d="M26.68,80.81a2,2,0,0,1-1.73-1.55L22.57,68a1.93,1.93,0,0,1,.52-1.77l-3.65,3.65a1.93,1.93,0,0,0-.52,1.77l2.37,11.3A2,2,0,0,0,23,84.46l27.8,2.78C51.41,87.3,26.68,80.81,26.68,80.81Z" transform="translate(-7.67 -13.74)"/><path class="cls-8" d="M82.56,77.23a1.81,1.81,0,0,1-1.28-.53L66.58,62a1.82,1.82,0,0,1,0-2.57L81.28,44.71a1.81,1.81,0,0,1,2.57,0l14.7,14.71a1.82,1.82,0,0,1,0,2.57L83.84,76.7A1.81,1.81,0,0,1,82.56,77.23Z" transform="translate(-7.67 -13.74)"/><path class="cls-9" d="M98.54,59.42L83.84,44.71a1.81,1.81,0,0,0-1.22-.53V60.64H99.07A1.82,1.82,0,0,0,98.54,59.42Z" transform="translate(-7.67 -13.74)"/><path class="cls-9" d="M66.58,62L81.28,76.7a1.81,1.81,0,0,0,1.17.53V60.82H66.06A1.81,1.81,0,0,0,66.58,62Z" transform="translate(-7.67 -13.74)"/><path class="cls-10" d="M82.56,67.27A0.91,0.91,0,0,1,81.92,67l-5.65-5.66a0.91,0.91,0,0,1,0-1.28l5.65-5.66a0.91,0.91,0,0,1,1.28,0l5.65,5.66a0.91,0.91,0,0,1,0,1.28L83.2,67A0.9,0.9,0,0,1,82.56,67.27Z" transform="translate(-7.67 -13.74)"/><path class="cls-11" d="M141.57,67.26l-7.82-12a2.39,2.39,0,0,0-2-1.09H103.56a2.39,2.39,0,0,0-2,1.09l-7.82,12a2.46,2.46,0,0,0,.15,2.89l12.45,15.29H129l12.45-15.29A2.46,2.46,0,0,0,141.57,67.26Z" transform="translate(-7.67 -13.74)"/><path class="cls-12" d="M101.56,55.23l-7.82,12a2.46,2.46,0,0,0-.39,1.5H111.8L102.47,54.4A2.4,2.4,0,0,0,101.56,55.23Z" transform="translate(-7.67 -13.74)"/><path class="cls-12" d="M141.57,67.26l-7.82-12a2.4,2.4,0,0,0-.91-0.82L123.5,68.76H142A2.45,2.45,0,0,0,141.57,67.26Z" transform="translate(-7.67 -13.74)"/><path class="cls-3" d="M106.34,85.44H112L99.59,70.15a2.46,2.46,0,0,1-.15-2.89l7.82-12a2.39,2.39,0,0,1,2-1.09h-5.7a2.39,2.39,0,0,0-2,1.09l-7.82,12a2.46,2.46,0,0,0,.15,2.89Z" transform="translate(-7.67 -13.74)"/><polygon class="cls-12" points="119.5 54.84 119.39 54.84 119.47 54.96 119.5 54.84"/><polygon class="cls-12" points="100.58 54.84 100.46 54.84 100.5 54.96 100.58 54.84"/><polygon class="cls-12" points="100.52 55.02 105.93 71.7 114.04 71.7 119.45 55.02 100.52 55.02"/><polygon class="cls-13" points="109.97 40.39 100.46 55.02 119.5 55.02 110 40.39 109.97 40.39"/><circle class="cls-14" cx="48.14" cy="68.81" r="7.32"/><path class="cls-14" d="M85,69.57a7.32,7.32,0,1,0,5.83,8.55A7.32,7.32,0,0,0,85,69.57Z" transform="translate(-7.67 -13.74)"/><circle class="cls-14" cx="61.48" cy="63.19" r="7.32"/><path class="cls-14" d="M101,75.9A7.32,7.32,0,1,0,103.23,86,7.32,7.32,0,0,0,101,75.9Z" transform="translate(-7.67 -13.74)"/><path class="cls-2" d="M137.09,137.65a1.56,1.56,0,0,1-1.56,1.56H19.94a1.56,1.56,0,0,1-1.56-1.56V83.8a1.56,1.56,0,0,1,1.56-1.56H135.53a1.56,1.56,0,0,1,1.56,1.56v53.85Z" transform="translate(-7.67 -13.74)"/><path class="cls-3" d="M28.07,137.65V83.8a1.56,1.56,0,0,1,1.56-1.56H19.93a1.56,1.56,0,0,0-1.56,1.56v53.85a1.56,1.56,0,0,0,1.56,1.56h9.69A1.56,1.56,0,0,1,28.07,137.65Z" transform="translate(-7.67 -13.74)"/><path class="cls-4" d="M29,130.08a1.56,1.56,0,0,1-1.56-1.56V92.93A1.56,1.56,0,0,1,29,91.38h97.44A1.56,1.56,0,0,1,128,92.93v35.59a1.56,1.56,0,0,1-1.56,1.56H29Z" transform="translate(-7.67 -13.74)"/><path class="cls-3" d="M37.13,128.52V92.93a1.56,1.56,0,0,1,1.56-1.56H29a1.56,1.56,0,0,0-1.56,1.56v35.59A1.56,1.56,0,0,0,29,130.08h9.68A1.56,1.56,0,0,1,37.13,128.52Z" transform="translate(-7.67 -13.74)"/><path class="cls-15" d="M64.66,82.25v29.17A1.56,1.56,0,0,0,66.22,113h23a1.56,1.56,0,0,0,1.56-1.56V82.25H64.66Z" transform="translate(-7.67 -13.74)"/><path class="cls-16" d="M58.48,56a1.19,1.19,0,0,1-1.15-.87c-1.13-4.09-1.86-4.82-6-5.95a1.19,1.19,0,0,1,0-2.29c4.11-1.13,4.83-1.85,6-5.95a1.19,1.19,0,0,1,2.3,0c1.13,4.09,1.86,4.82,6,5.95a1.19,1.19,0,0,1,0,2.29c-4.11,1.13-4.83,1.85-6,5.95A1.19,1.19,0,0,1,58.48,56Z" transform="translate(-7.67 -13.74)"/><path class="cls-17" d="M154.63,45.73c-4.52-1.24-5.32-2-6.57-6.55a1.32,1.32,0,0,0-2.53,0c-1.25,4.51-2,5.3-6.57,6.55a1.31,1.31,0,0,0,0,2.52c4.52,1.24,5.32,2,6.57,6.55a1.31,1.31,0,0,0,2.53,0c1.25-4.51,2-5.3,6.57-6.55A1.31,1.31,0,0,0,154.63,45.73Z" transform="translate(-7.67 -13.74)"/><path class="cls-17" d="M24.31,21.25c-4.52-1.24-5.32-2-6.57-6.55a1.32,1.32,0,0,0-2.53,0c-1.25,4.51-2,5.3-6.57,6.55a1.31,1.31,0,0,0,0,2.52c4.52,1.24,5.32,2,6.57,6.55a1.32,1.32,0,0,0,2.53,0c1.25-4.51,2-5.3,6.57-6.55A1.31,1.31,0,0,0,24.31,21.25Z" transform="translate(-7.67 -13.74)"/><path class="cls-1" d="M82.5,93.17a4.77,4.77,0,1,0-7,4.22v7.22a2.26,2.26,0,1,0,4.53,0V97.39A4.8,4.8,0,0,0,82.5,93.17Z" transform="translate(-7.67 -13.74)"/><path class="cls-3" d="M64.66,82.25v29.17A1.56,1.56,0,0,0,66.22,113h6.4a1.56,1.56,0,0,1-1.56-1.56V82.25h-6.4Z" transform="translate(-7.67 -13.74)"/></svg>