<svg id="圖層_1" data-name="圖層 1" xmlns="http://www.w3.org/2000/svg" viewBox="0 0 144.18 101.63"><defs><style>.cls-1{fill:#efba50;}.cls-2{opacity:0.1;isolation:isolate;}.cls-3{fill:#5a482e;}.cls-4{fill:#bf953e;}.cls-5{fill:#a87b2c;}.cls-6{fill:none;stroke:#000;stroke-miterlimit:10;stroke-width:1.6px;}</style></defs><title>Treasure-UnOpen</title><path class="cls-1" d="M150.22,103.26a2,2,0,0,1-2.07,1.89H14.86a2,2,0,0,1-2.07-1.89V42.76a2,2,0,0,1,2.07-1.89H148.15a2,2,0,0,1,2.07,1.89v60.5h0Z" transform="translate(-9.42 -29.48)"/><path class="cls-2" d="M25.81,103.26V42.76a2,2,0,0,1,2.07-1.89h-13a2,2,0,0,0-2.07,1.89v60.5a2,2,0,0,0,2.07,1.89h13A2,2,0,0,1,25.81,103.26Z" transform="translate(-9.42 -29.48)"/><path class="cls-3" d="M129.38,118.1v11.13a1.9,1.9,0,0,0,1.89,1.89h13.07a1.9,1.9,0,0,0,1.89-1.89V118.1H129.38Z" transform="translate(-9.42 -29.48)"/><path class="cls-3" d="M16.78,129.22a1.9,1.9,0,0,0,1.89,1.89H31.74a1.9,1.9,0,0,0,1.89-1.89V118.1H16.78v11.13Z" transform="translate(-9.42 -29.48)"/><path class="cls-4" d="M98.44,44.91H64.57a1.9,1.9,0,0,0-1.89,1.89v8.89a1.9,1.9,0,0,0,1.89,1.89H98.44a1.9,1.9,0,0,0,1.89-1.89V46.8A1.9,1.9,0,0,0,98.44,44.91Z" transform="translate(-9.42 -29.48)"/><path class="cls-2" d="M137.31,129.22V118.1h-7.93v11.13a1.9,1.9,0,0,0,1.89,1.89h7.93A1.9,1.9,0,0,1,137.31,129.22Z" transform="translate(-9.42 -29.48)"/><path class="cls-2" d="M24.59,129.22V118.1H16.78v11.13a1.9,1.9,0,0,0,1.89,1.89h7.81A1.9,1.9,0,0,1,24.59,129.22Z" transform="translate(-9.42 -29.48)"/><path class="cls-2" d="M70.53,55.69V46.8a1.9,1.9,0,0,1,1.89-1.89H64.57a1.9,1.9,0,0,0-1.89,1.89v8.89a1.9,1.9,0,0,0,1.89,1.89h7.85A1.9,1.9,0,0,1,70.53,55.69Z" transform="translate(-9.42 -29.48)"/><path class="cls-4" d="M153.6,119.91a1.9,1.9,0,0,1-1.89,1.89H11.31a1.9,1.9,0,0,1-1.89-1.89V54.51a1.9,1.9,0,0,1,1.89-1.89h140.4a1.9,1.9,0,0,1,1.89,1.89v65.4Z" transform="translate(-9.42 -29.48)"/><path class="cls-2" d="M21.18,119.91V54.51a1.9,1.9,0,0,1,1.89-1.89H11.31a1.9,1.9,0,0,0-1.89,1.89v65.4a1.9,1.9,0,0,0,1.89,1.89H23.07A1.9,1.9,0,0,1,21.18,119.91Z" transform="translate(-9.42 -29.48)"/><path class="cls-1" d="M22.33,110.71a1.9,1.9,0,0,1-1.89-1.89V65.59a1.9,1.9,0,0,1,1.89-1.89H140.68a1.9,1.9,0,0,1,1.89,1.89v43.23a1.9,1.9,0,0,1-1.89,1.89H22.33Z" transform="translate(-9.42 -29.48)"/><path class="cls-2" d="M32.19,108.82V65.59a1.9,1.9,0,0,1,1.89-1.89H22.33a1.9,1.9,0,0,0-1.89,1.89v43.23a1.9,1.9,0,0,0,1.89,1.89H34.08A1.9,1.9,0,0,1,32.19,108.82Z" transform="translate(-9.42 -29.48)"/><path class="cls-5" d="M65.63,52.62V88a1.9,1.9,0,0,0,1.89,1.89h28A1.9,1.9,0,0,0,97.38,88V52.62H65.63Z" transform="translate(-9.42 -29.48)"/><path class="cls-3" d="M87.3,65.89A5.79,5.79,0,1,0,78.76,71v8.77a2.75,2.75,0,0,0,5.5,0V71A5.83,5.83,0,0,0,87.3,65.89Z" transform="translate(-9.42 -29.48)"/><path class="cls-2" d="M65.63,52.62V88a1.9,1.9,0,0,0,1.89,1.89H75.3A1.9,1.9,0,0,1,73.41,88V52.62H65.63Z" transform="translate(-9.42 -29.48)"/><line class="cls-6" x1="3.92" x2="3.92" y2="43.52"/><line class="cls-6" x1="13.2" x2="13.2" y2="43.52"/><line class="cls-6" x1="22.49" x2="22.49" y2="43.52"/><line class="cls-6" x1="31.77" x2="31.77" y2="43.52"/></svg>