<?xml version="1.0" encoding="utf-8"?>
<!-- Generator: Adobe Illustrator 19.2.0, SVG Export Plug-In . SVG Version: 6.00 Build 0)  -->
<svg version="1.1" id="圖層_1" xmlns="http://www.w3.org/2000/svg" xmlns:xlink="http://www.w3.org/1999/xlink" x="0px" y="0px"
	 viewBox="0 0 1174 1005.3" style="enable-background:new 0 0 1174 1005.3;" xml:space="preserve">
<style type="text/css">
	.st0{fill:url(#SVGID_1_);}
	.st1{fill:#DFB593;stroke:#DDB392;stroke-width:20.6413;stroke-linejoin:round;stroke-miterlimit:10;}
	.st2{fill:#D2AB89;}
	.st3{fill:#D9B89B;}
	.st4{fill:#D8B596;}
	.st5{fill:none;stroke:#EDAEA9;stroke-width:16.513;stroke-miterlimit:10;}
	.st6{fill:none;stroke:#EDAEA9;stroke-width:16.513;stroke-miterlimit:10;stroke-dasharray:37.5434,37.5434;}
	.st7{fill:#885724;}
	.st8{fill:#FFD649;}
	.st9{fill:#5C3500;}
	.st10{fill:#D69709;}
	.st11{fill:#612D0C;}
	.st12{fill:#F58907;}
	.st13{fill:#5E3014;}
	.st14{fill:none;}
	.st15{fill:#1E2527;}
	.st16{fill:#2B3234;}
	.st17{fill:#161D1B;}
	.st18{fill:#FFE248;}
	.st19{fill:#592E12;}
	.st20{fill:#930305;}
	.st21{fill:#C01003;}
	.st22{fill:#FFFFFF;}
	.st23{fill:#C20E03;}
	.st24{fill:#BF1003;}
	.st25{fill:#911300;}
	.st26{fill:#F5D947;}
	.st27{fill:#8C5421;}
	.st28{fill:#461D02;}
	.st29{fill:#BE0E00;}
	.st30{fill:#AD723D;}
	.st31{fill:#E5D665;}
	.st32{fill:#666666;}
	.st33{fill:#5B79CE;}
	.st34{clip-path:url(#SVGID_3_);fill:#6F91DD;}
	.st35{clip-path:url(#SVGID_3_);fill:#4D4D4D;}
	.st36{fill:#4D4D4D;}
</style>
<g>
	
		<radialGradient id="SVGID_1_" cx="558.2716" cy="677.5587" r="272.7282" gradientTransform="matrix(2.2154 0 0 1.739 -659.0261 -675.6049)" gradientUnits="userSpaceOnUse">
		<stop  offset="0.4199" style="stop-color:#F8D5B7"/>
		<stop  offset="0.8485" style="stop-color:#F1C199"/>
	</radialGradient>
	<path class="st0" d="M305.3,34.1c6.5,7,13,14,19.5,21.1l24-38.9l179-0.3c2.7-0.6,30.9-6,54.7,9.3c20.4,13.1,22.3,31.7,22.5,34.7v0
		c6.2-2.8,8.5-5.9,9.6-8c2.5-5-0.7-8.3-2.1-20.7c-0.7-6.2-1.1-9.4,0.3-11.9c3.7-6.7,15.3-8.7,22.8-9.9c45.6-7.3,68.6-10.9,81.7-8.9
		c12.1,1.8,26.3,4,40.1,13.1c16.6,10.9,22.3,24.9,24.2,30.9l4.6,11.4c1.4-1.9,3.2-5,4-9c0.4-2,0.9-6.1-2.8-19.3
		c-2.5-9-3.9-11.3-2.4-13.8c1.5-2.6,4.7-3.3,12-4.1c13.4-1.6,23.6-2.8,39.1-1.8c17.7,1.1,14.4-0.7,45.3-0.5
		c30.4,0.2,121.1,2.7,243,7.1c-3.4,51.4-6.7,103.1-10.1,154.9l-62.1,15.7c11.8,6.2,27.8,16.5,41.6,32.3
		c30.5,34.9,28.1,71.8,26.7,83.7c0.9,13.1-12,23.7-28.5,23.6c8.5,13.1,34.5,65.6,25.6,115.2c-8.1,44.7-40.7,59.6-53.1,70.7
		l59.5,128.5l6.7,168l13,171.9l-31.2,26.6l-43-38.1l-22.6,12.8l-29.5-50.7l-9.4,23.9c-10.2,25.8-41.3,42-75,38.9l-145.3-13.4
		l-75.4,18.7l-1.7-68.3l-46.6,57.1l-376.1,19c-37.8,1.9-71.4-19.9-77.3-50.1l-7.8-40l-19.5,35.9c-11.6,21.3-37.8,35.1-66.8,35.1
		l-38.4,0l-0.4-157.4l44.9-73.3l-45.2-48.7l4.3-128.6L12.1,297l70-135.5l-0.3-26.3c1.4-4.6,4.7-12.8,13-20.8
		c10.1-9.8,22.2-14,28-15.8c-17.6-13.2-32.7-16.5-50.3-29.7c-3.1-2.3-4.9-5.6-4.9-8.9l-2.6-46.3l167.7,1.5
		c14.7,19.5,29.4,39,44.1,58.5C286.4,60.5,295.9,47.3,305.3,34.1z"/>
	<path class="st1" d="M158.7,274.9c12-10.1,115.7-96.7,187.1-136.6c16.1-9,37.6-19.5,64.7-18.4c26.8,1.1,50.2,13.1,53,14.6
		c14.4,7.6,15.9,12.3,29,19.2c18.2,9.5,37.6,11.8,51.5,12.2c11.1-2.4,28.1-7.2,44.9-17.4c21.7-13.2,25.1-24.7,44.4-35.1
		c10.6-5.7,28.1-12.2,56.8-12.5c46.5,13.2,79.4,41.6,81.4,71.4c1.9,27.9-23.7,49.7-36,60.2c-20.8,17.7-44.2,26.4-58,30.5
		c1.9,18.7,3.1,46-1.1,78.9c-4.8,37.3-7.1,55.9-19.6,69.6c-29.4,32.2-70.5,15.6-111.5,53.8c-9,8.4-25.6,23.8-32.7,47.1
		c-3.8,12.3-2.8,19.8-8.6,34c-6.5,15.9-16.3,27.7-23.9,35.3c21.7,28.9,13.7,42.7,11.5,45.9c-12.2,17.8-52.1,14.8-113.6,10
		c-68.7-5.3-79.8-17.7-83.4-23.6c-3.9-6.4-5.3-15.4-1.8-23.3c5.5-12.3,19.6-14.4,30.5-23.1c9.7-7.7,18.7-22.1,14.8-51.3
		c-16.9-15.6-44.2-39.2-81.9-64.6c-36.2-24.4-53.4-31.3-80-51.3c-21.6-16.2-50.7-42.1-76.9-82C119.1,303.9,138.9,289.4,158.7,274.9z
		"/>
	<path class="st1" d="M719,476.3c-30.5-12.8-77.7-13.4-107.9,8.7c-28.2,20.6-37.6,57.9-19.7,80.1c7.7,9.5,21.7,14.3,49.4,23.4
		c102.5,33.7,108.4,35.5,114,37.2c82.9,25.7,97.8,35.2,116.8,27.1c18.5-7.9,30.2-27.9,26.1-44.5c-1.4-5.6-5.6-14.8-31.4-31.1
		c-33.3-21-49.3-20.2-74-33.1C745.1,519.3,758.4,492.8,719,476.3z"/>
	<path class="st2" d="M615.7,283.5l-49.4-21.4l28.4-35.4c2.7-3.4,1.4-8-3-10.2l-14.9-7.6c-4.4-2.2-10.1-1.3-12.9,2.1l-29.8,37.1
		l-55.2-23.9c-4.6-2-10.2-0.7-12.7,2.8l-8.2,12.1c-2.4,3.6-0.7,8.1,3.9,10l52.9,22.9l-34.2,42.5c-2.8,3.4-1.4,8,3,10.3l15,7.6
		c4.4,2.2,10.2,1.3,13-2.1l35.6-44.3l51.8,22.5c4.6,2,10.3,0.7,12.7-2.9l8.2-12.1C622.1,290,620.3,285.5,615.7,283.5z"/>
	<g>
		<path class="st3" d="M421.6,839c8.5,1.6,14.8-6,14.8-6l52.3,7.3c0.5,1.2,1,2.6,1.5,4.4c3.5,13.3-1.7,18.9,3.8,23.2
			c0,0,1.3,0.9,9.6,2.1l25.1-0.2c0,0-0.1,0.7,0.1,1.7c0.2,1,0.8,2.3,2,3.6c2.6,2.6,8.6,4.7,11.4,4.7c2.8,0,23.8-3.3,23.8-3.3
			s16.6-6.2,18.9-7.6c2.3-1.3,5.5-5.7,5.7-9.1c0.1-1.4-0.3-2.4-0.8-3.3c-0.6-1.3-1.4-2-1.4-2l24.5-13c4.9-4.1,5.2-5.3,5.2-5.3
			c1.3-6-7-8.1-14.1-20.5c-1-1.7-1.6-3.1-2.1-4.4l36.5-29.7c0,0,10.8,3.3,16.4-1.9c5.6-5.2,7.6-8.6,3.3-13c-4.8-5-9.7-5.1-12.9-2.9
			c-3.6,2.5-3.5,1.3-1.6-0.7c2-2,1.3-6.4-2.1-9.8c-3.3-3.5-11.3-2.4-19.6,3.2c-8.3,5.6,4.3,16.3,4.3,16.3l-30.2,22.5
			c-7.5-12.1-20.7-18.6-23.5-19.9c-22.3-10.5-45.5-5.2-49.8-4.1c-4.2,1.1-27.1,7.4-37.4,26.2c-1.3,2.4-7.1,13.8-4.2,27.1l-41.8-4.4
			c0,0,2.2-14.5-8.8-15.3c-11-0.8-18.3,2.1-18.4,6.4c-0.1,4.3,2.6,8.2,5.7,9c3.1,0.7,4.1,1.7-0.7,1.3c-4.4-0.4-8.3,2-8.4,8.3
			C408.9,835.5,413,837.3,421.6,839z M560.3,821.6c4-5,14.5-3.7,17.6-3.3c6.6,0.8,16.9,4,17.6,9.2c0.4,2.9-2.4,5.3-6.4,8.7
			c-3.8,3.2-6.5,5.6-10.9,5.9c-6.6,0.5-11.7-4.2-13.1-5.4C561.6,833.5,556.5,826.4,560.3,821.6z M548.6,854.8
			c0.6-2.1,1.9-6.3,5.8-7.3c3.7-0.9,7.4,1.7,9.7,3.3c3.8,2.7,7.3,7.1,5.9,8.5c-0.5,0.5-1.7,0.8-5,0.1c-0.7-0.7-1.7-1.7-3.2-2.8
			c-1.9-1.4-2.9-2.1-4-2c-2.3,0.2-3.3,3.6-3.4,3.9c-0.5,1.7-0.2,3.2,0.1,4c-2,2.6-3.2,3.1-4,2.9
			C548.3,865.3,547.2,859.6,548.6,854.8z M513.2,834.8c2.2-1.7,9.8-7.6,16.8-5.4c6.7,2.1,7.8,10.2,7.4,14.5
			c-0.2,1.7-0.8,7.8-6.5,10.4c-3.8,1.7-7.8,1.1-13.3,0.2c-5.9-1-9.9-1.6-11.7-4.1C502.4,845.8,508.4,838.5,513.2,834.8z"/>
		<path class="st3" d="M686.5,856.3c-5.4-1-10.4,2.7-10.4,2.7s-19.2,0.7-28.4-0.5c-9.3-1.2-30.5-7.1-30.5-7.1l-8.2-3.5
			c-1.9,1-4,2.3-6,3.8c-2.6,2-4.1,3.4-5.6,5.1c-0.6,2.5-1.7,5.5-1.2,9.5c0.8,7,5,13.1,7.2,16.1c-2.3,3.2-7.6,9.5-17.6,13.5
			c-4.5,1.8-8.7,2.6-12,3.1c-2.9,1.2-6.9,2.5-12,3.1c-11,1.3-19.8-1.6-23.6-3.2c0,0-5.3-12.9-6.3-15.2c-0.5-1.2-2.8-2.9-5.1-4.4
			c-1.7-1.1-3.2-2-4.4-2.6c-1.3-1-2.9-2-4.9-2.8c-1.3-0.5-2.5-0.9-3.8-1.1l-4.3,0.5l-4,6.6c-7.2,9.6-14.8,15.9-20.4,19.9
			c-8.4,6-21.9,13.7-21.9,13.7s-6.8-0.7-10.5,2.7c-3.7,3.3-5.4,10.6-1.3,14.2c4,3.7,12,2.6,12,2.6s-2.2,5,4.4,9.1
			c6.5,4.1,15.2-0.3,15.2-0.3s3.9-1.8,5.8-6.3c2-4.4-3.9-13.7-3.9-13.7s1.2-3.3,11.8-12.8c10.6-9.5,19.6-19.2,19.6-19.2l7.2-2.9
			l2.3,5.5c-1.2,7.3,0.8,10.4,2.9,11.8c4.5,3.2,11.6,0.5,19.8,4.8c2.2,1.2,3.8,2.4,4.7,3.2c2.5,0.9,5.1,1.8,7.6,2.7
			c2.4,0,11.9-0.2,16.4-5.6c0.5-0.6,1-1.2,1.3-2c0.6,0.3,1.4,0.7,2.6,1c6.1,1.7,11.9-1,13.3-1.7c2.3-1.1,3.7-2.2,4.2-2.6
			c3.7-3.1,4.8-6.6,5.2-8.3c9.2-5.4,11.2-9.8,11.2-13c0-4.9-4.9-11.9-4.9-11.9l-2.3-5.5l8-1c0,0,14.5,3.7,30.1,6.5
			c15.6,2.8,19,4.9,19,4.9s2.2,10.2,7,12.9c4.9,2.7,9.3,2.4,9.3,2.4s10.3-0.4,12.5-6.8c2.2-6.3-3.3-9.4-3.3-9.4s7.2-2.9,7.7-7.6
			C698.6,862.4,691.9,857.3,686.5,856.3z"/>
		<path class="st3" d="M546,883c-0.3-1.3-1.9-2.1-3.4-1.6c-0.2,0.1-0.3,0.1-0.5,0.2c-1.5,0.4-2.5,1.7-2.2,2.9
			c0.3,1.2,0.5,1.8,0.8,3.1c0.3,1.2,1.8,2.1,3.5,1.9c0.2,0,0.3,0,0.6,0c1.6-0.1,2.6-1.4,2.2-2.8C546.5,885.1,546.3,884.4,546,883z"
			/>
		<path class="st3" d="M553,882.2c-0.3-1.3-2-2.4-3.6-2.3c-0.2,0-0.3,0-0.6,0.1c-1.6,0.2-2.5,1.6-2.2,2.9c0.3,1.4,0.5,2,0.9,3.6
			c0.4,1.5,2.1,2.5,3.7,2.4c0.2,0,0.4,0,0.6,0c1.7-0.1,2.6-1.5,2.1-3C553.5,884.3,553.3,883.6,553,882.2z"/>
		<path class="st3" d="M560.2,881.6c-0.5-1.4-2.1-2.4-3.6-2.2c-0.2,0-0.3,0-0.6,0.1c-1.6,0.2-2.6,1.4-2.3,2.7
			c0.4,1.4,0.6,2.1,1.1,3.7c0.5,1.5,2.2,2.5,3.9,2.3c0.2,0,0.4-0.1,0.6-0.1c1.6-0.3,2.7-1.5,2.3-2.7
			C561.1,884.1,560.7,883.1,560.2,881.6z"/>
		<path class="st3" d="M566.9,880.2c-0.7-1.6-2.4-2.6-3.8-2.2c-0.2,0.1-0.3,0.1-0.5,0.1c-1.4,0.4-2.2,1.9-1.7,3.3
			c0.5,1.6,0.9,2.5,1.3,3.8c0.4,1.2,2,1.9,3.6,1.5c0.2-0.1,0.3-0.1,0.6-0.1c1.6-0.4,2.6-1.6,2.1-2.6
			C568.1,883,567.6,881.9,566.9,880.2z"/>
		<path class="st3" d="M573.4,884.8c1.6-0.4,2.4-1.7,1.8-2.9c-0.6-1.2-1-2.2-1.7-3.7c-0.6-1.4-2.4-2.3-3.8-1.9
			c-0.2,0.1-0.3,0.1-0.5,0.1c-1.5,0.4-2.2,2-1.5,3.6c0.7,1.7,1.2,2.8,1.6,3.9c0.4,1,2.1,1.5,3.7,1.1
			C573,884.9,573.2,884.9,573.4,884.8z"/>
		<path class="st3" d="M579.6,882.8c0.2-0.1,0.3-0.1,0.5-0.2c1.5-0.6,2.2-2.2,1.4-3.6c-0.8-1.5-1.2-2.2-1.9-3.4
			c-0.7-1.1-2.3-1.7-3.7-1.2c-0.2,0.1-0.3,0.1-0.5,0.2c-1.4,0.5-2.1,2.1-1.4,3.5c0.7,1.5,1.1,2.5,1.7,3.7
			C576.4,882.9,578.1,883.4,579.6,882.8z"/>
		<path class="st3" d="M586.2,880.1c0.2-0.1,0.3-0.1,0.5-0.2c1.4-0.7,2-2.3,1.2-3.7c-0.8-1.5-1.2-2-1.9-3.2c-0.7-1.1-2.5-1.7-4-1.2
			c-0.2,0.1-0.3,0.1-0.5,0.2c-1.4,0.6-1.9,2.2-1.2,3.3c0.8,1.2,1.2,1.9,1.9,3.4C583,880.1,584.7,880.7,586.2,880.1z"/>
		<path class="st3" d="M592.5,877.3c0.2-0.1,0.3-0.1,0.5-0.2c1.4-0.7,2-2.1,1.4-3.2c-0.7-1.2-1-1.7-1.7-2.9
			c-0.6-1.1-2.4-1.6-3.9-1.2c-0.2,0.1-0.3,0.1-0.6,0.1c-1.6,0.4-2.2,1.8-1.5,2.9c0.8,1.2,1.1,1.7,1.9,3.2
			C589.3,877.3,591,877.9,592.5,877.3z"/>
		<path class="st3" d="M545,890.6c-0.2,0-0.4,0-0.6,0c-1.6,0.1-2.7,1-2.4,2.1c0.3,1.2,0.5,1.9,0.8,3.1c0.3,1.2,2,2.4,3.8,2.7
			c0.3,0,0.4,0.1,0.6,0.1c1.8,0.3,2.9-0.7,2.6-2c-0.4-1.4-0.6-2.2-1-3.6C548.3,891.6,546.6,890.5,545,890.6z"/>
		<path class="st3" d="M554.4,899.3c0.3,0,0.4,0,0.6,0c1.8,0.1,2.9-1.2,2.4-2.7c-0.5-1.6-0.8-2.4-1.3-4c-0.5-1.5-2.2-2.6-3.9-2.4
			c-0.2,0-0.4,0-0.6,0c-1.7,0.1-2.7,1.4-2.3,2.7c0.4,1.5,0.6,2.2,1,3.7C550.8,898,552.6,899.2,554.4,899.3z"/>
		<path class="st3" d="M562.3,899.1c0.3,0,0.4,0,0.6-0.1c1.8-0.2,2.8-1.6,2.2-3.2c-0.6-1.7-0.9-2.5-1.5-4.2c-0.6-1.6-2.4-2.6-4-2.3
			c-0.2,0-0.4,0.1-0.6,0.1c-1.7,0.3-2.6,1.6-2.1,3.1c0.5,1.6,0.8,2.4,1.3,4C558.7,898.1,560.5,899.3,562.3,899.1z"/>
		<path class="st3" d="M570.1,898.1c0.3,0,0.4-0.1,0.6-0.1c1.7-0.4,2.6-2,2-3.6c-0.7-1.7-1.1-2.6-1.8-4.3c-0.7-1.6-2.5-2.5-4.1-2.2
			c-0.2,0.1-0.3,0.1-0.6,0.1c-1.6,0.4-2.5,1.9-1.9,3.5c0.6,1.7,0.9,2.5,1.6,4.2C566.5,897.3,568.4,898.4,570.1,898.1z"/>
		<path class="st3" d="M577.7,896.2c0.2-0.1,0.4-0.1,0.6-0.2c1.7-0.5,2.4-2.3,1.7-3.8c-0.8-1.7-1.1-2.5-1.9-4.2
			c-0.7-1.5-2.6-2.4-4.1-1.9c-0.2,0.1-0.3,0.1-0.6,0.2c-1.6,0.5-2.4,2.1-1.7,3.7c0.7,1.7,1.1,2.6,1.8,4.3
			C574.1,895.8,576,896.7,577.7,896.2z"/>
		<path class="st3" d="M584.8,893.5c0.2-0.1,0.3-0.2,0.6-0.3c1.6-0.7,2.2-2.5,1.4-4c-0.8-1.5-1.2-2.3-2-3.9
			c-0.7-1.4-2.5-2.1-4.1-1.6c-0.2,0.1-0.3,0.1-0.5,0.2c-1.5,0.6-2.2,2.2-1.5,3.8c0.8,1.7,1.1,2.5,1.9,4.1
			C581.4,893.5,583.3,894.2,584.8,893.5z"/>
		<path class="st3" d="M591.4,890c0.2-0.1,0.3-0.2,0.5-0.3c1.4-0.9,1.9-2.7,1.2-4c-0.8-1.4-1.1-2.1-1.9-3.4
			c-0.7-1.3-2.5-1.8-3.9-1.2c-0.2,0.1-0.3,0.1-0.5,0.2c-1.4,0.7-2.1,2.3-1.3,3.8c0.8,1.5,1.2,2.3,2,3.8
			C588.2,890.4,590,890.9,591.4,890z"/>
		<path class="st3" d="M597.3,885.8c0.2-0.1,0.3-0.2,0.4-0.4c1.2-1.1,1.7-2.8,1-3.9c-0.7-1.1-1-1.7-1.7-2.9
			c-0.6-1.1-2.2-1.3-3.6-0.6c-0.2,0.1-0.3,0.2-0.5,0.3c-1.4,0.7-1.9,2.4-1.2,3.6c0.7,1.4,1.1,2,1.9,3.4
			C594.4,886.6,596,886.8,597.3,885.8z"/>
	</g>
	<polygon class="st4" points="237.4,737 254.8,800.7 283.2,785.4 266.5,804.5 335.2,812.1 264.9,823.3 282.6,850.8 256.3,836.1 
		250.3,893 232.9,830.1 202.8,848.5 222.4,825.6 148.3,819.2 225.8,808.1 202.3,779.2 230.9,796.5 	"/>
	<g>
		<g>
			<path class="st5" d="M638.9,228.9c4.9-1.4,11-3,18-4.6"/>
			<path class="st6" d="M693.9,218.2c25.7-2.8,57.1-3.2,91.7,2.8c36.8,6.4,110.9,19.4,139.8,70.5c20.2,35.8,15.3,85-23.4,114.7
				c-31,23.8-93.2,42.3-126.6,17.4c-24.4-18.2-27.8-55.5-6.6-75.7c33.2-31.7,110.1-5.5,117.7-2.9c71.8,25.2,98.3,87.9,107.9,110.4
				c3.9,9.1,54,133.7-40.4,214.8c-47.7,41-110.2,51.8-128.9,54.9c-76.5,12.4-112.9-11.9-198-4.2c-37.8,3.4-70.2,11.8-96.3,20.9"/>
			<path class="st5" d="M513.1,748.3c-6.2,2.5-11.9,5-17.1,7.3"/>
		</g>
	</g>
</g>
<g>
	
		<rect x="80.6" y="759.5" transform="matrix(0.937 0.3492 -0.3492 0.937 301.3704 -2.1186)" class="st7" width="152" height="150.6"/>
	
		<rect x="77.7" y="731.6" transform="matrix(0.937 0.3492 -0.3492 0.937 288.0316 22.7015)" class="st8" width="6.7" height="157.2"/>
	
		<rect x="168.4" y="762.2" transform="matrix(0.937 0.3492 -0.3492 0.937 287.931 -10.0027)" class="st8" width="6.7" height="62.7"/>
	<g>
		<g>
			<path class="st8" d="M206.9,917.4c-7.9-2.6-16.4,1.5-19.4,9.2l14,5.2L206.9,917.4z"/>
			<polygon class="st8" points="187.5,926.7 56.4,877.8 54.1,884 186.5,933.4 199.2,938.1 201.5,931.9 			"/>
			<polygon class="st8" points="254.1,790.8 206.9,917.4 201.5,931.9 199.2,938.1 201.4,938.9 205.4,940.4 212.7,920.8 260.3,793.1 
							"/>
		</g>
	</g>
	
		<ellipse transform="matrix(0.3492 -0.937 0.937 0.3492 -736.5743 788.5255)" class="st9" cx="199.4" cy="924.5" rx="2.7" ry="2.7"/>
	<path class="st8" d="M64.4,864.3c7.6,3.2,11.4,11.8,8.6,19.7l-14-5.2L64.4,864.3z"/>
	<ellipse transform="matrix(0.3492 -0.937 0.937 0.3492 -776.9739 630.5123)" class="st9" cx="65.4" cy="874.6" rx="2.7" ry="2.7"/>
	<g>
		<g>
			
				<ellipse transform="matrix(0.3492 -0.937 0.937 0.3492 -580.5123 757.8812)" class="st10" cx="255.4" cy="796.9" rx="1.7" ry="1.7"/>
			
				<ellipse transform="matrix(0.3492 -0.937 0.937 0.3492 -590.1493 760.3452)" class="st10" cx="252.3" cy="805" rx="1.7" ry="1.7"/>
			
				<ellipse transform="matrix(0.3492 -0.937 0.937 0.3492 -599.7863 762.809)" class="st10" cx="249.3" cy="813.2" rx="1.7" ry="1.7"/>
			
				<ellipse transform="matrix(0.3492 -0.937 0.937 0.3492 -609.4233 765.2729)" class="st10" cx="246.2" cy="821.4" rx="1.7" ry="1.7"/>
			
				<ellipse transform="matrix(0.3492 -0.937 0.937 0.3492 -619.0604 767.7369)" class="st10" cx="243.2" cy="829.5" rx="1.7" ry="1.7"/>
			
				<ellipse transform="matrix(0.3492 -0.937 0.937 0.3492 -628.6974 770.2008)" class="st10" cx="240.1" cy="837.7" rx="1.7" ry="1.7"/>
			
				<ellipse transform="matrix(0.3492 -0.937 0.937 0.3492 -638.3344 772.6647)" class="st10" cx="237.1" cy="845.9" rx="1.7" ry="1.7"/>
			
				<ellipse transform="matrix(0.3492 -0.937 0.937 0.3492 -647.9714 775.1286)" class="st10" cx="234.1" cy="854.1" rx="1.7" ry="1.7"/>
			
				<ellipse transform="matrix(0.3492 -0.937 0.937 0.3492 -657.6084 777.5925)" class="st10" cx="231" cy="862.2" rx="1.7" ry="1.7"/>
			
				<ellipse transform="matrix(0.3492 -0.937 0.937 0.3492 -667.2454 780.0565)" class="st10" cx="228" cy="870.4" rx="1.7" ry="1.7"/>
			
				<ellipse transform="matrix(0.3492 -0.937 0.937 0.3492 -676.8824 782.5204)" class="st10" cx="224.9" cy="878.6" rx="1.7" ry="1.7"/>
			
				<ellipse transform="matrix(0.3492 -0.937 0.937 0.3492 -686.5195 784.9843)" class="st10" cx="221.9" cy="886.7" rx="1.7" ry="1.7"/>
			
				<ellipse transform="matrix(0.3492 -0.937 0.937 0.3492 -696.1565 787.4482)" class="st10" cx="218.8" cy="894.9" rx="1.7" ry="1.7"/>
			
				<ellipse transform="matrix(0.3492 -0.937 0.937 0.3492 -705.7935 789.9121)" class="st10" cx="215.8" cy="903.1" rx="1.7" ry="1.7"/>
			
				<ellipse transform="matrix(0.3492 -0.937 0.937 0.3492 -715.4305 792.376)" class="st10" cx="212.7" cy="911.2" rx="1.7" ry="1.7"/>
			
				<ellipse transform="matrix(0.3492 -0.937 0.937 0.3492 -725.0676 794.84)" class="st10" cx="209.7" cy="919.4" rx="1.7" ry="1.7"/>
			
				<ellipse transform="matrix(0.3492 -0.937 0.937 0.3492 -734.7046 797.3039)" class="st10" cx="206.6" cy="927.6" rx="1.7" ry="1.7"/>
			
				<ellipse transform="matrix(0.3492 -0.937 0.937 0.3492 -744.3416 799.7678)" class="st10" cx="203.6" cy="935.8" rx="1.7" ry="1.7"/>
		</g>
	</g>
	<g>
		<g>
			
				<ellipse transform="matrix(0.3492 -0.937 0.937 0.3492 -625.3546 582.491)" class="st10" cx="106.7" cy="741.5" rx="1.7" ry="1.7"/>
			
				<ellipse transform="matrix(0.3492 -0.937 0.937 0.3492 -634.9916 584.955)" class="st10" cx="103.6" cy="749.6" rx="1.7" ry="1.7"/>
			
				<ellipse transform="matrix(0.3492 -0.937 0.937 0.3492 -644.6287 587.4189)" class="st10" cx="100.6" cy="757.8" rx="1.7" ry="1.7"/>
			
				<ellipse transform="matrix(0.3492 -0.937 0.937 0.3492 -654.2657 589.8828)" class="st10" cx="97.5" cy="766" rx="1.7" ry="1.7"/>
			
				<ellipse transform="matrix(0.3492 -0.937 0.937 0.3492 -663.9027 592.3467)" class="st10" cx="94.5" cy="774.1" rx="1.7" ry="1.7"/>
			
				<ellipse transform="matrix(0.3492 -0.937 0.937 0.3492 -673.5397 594.8106)" class="st10" cx="91.5" cy="782.3" rx="1.7" ry="1.7"/>
			
				<ellipse transform="matrix(0.3492 -0.937 0.937 0.3492 -683.1768 597.2745)" class="st10" cx="88.4" cy="790.5" rx="1.7" ry="1.7"/>
			
				<ellipse transform="matrix(0.3492 -0.937 0.937 0.3492 -692.8138 599.7385)" class="st10" cx="85.4" cy="798.6" rx="1.7" ry="1.7"/>
			
				<ellipse transform="matrix(0.3492 -0.937 0.937 0.3492 -702.4508 602.2024)" class="st10" cx="82.3" cy="806.8" rx="1.7" ry="1.7"/>
			
				<ellipse transform="matrix(0.3492 -0.937 0.937 0.3492 -712.0878 604.6663)" class="st10" cx="79.3" cy="815" rx="1.7" ry="1.7"/>
			
				<ellipse transform="matrix(0.3492 -0.937 0.937 0.3492 -721.7249 607.1302)" class="st10" cx="76.2" cy="823.2" rx="1.7" ry="1.7"/>
			
				<ellipse transform="matrix(0.3492 -0.937 0.937 0.3492 -731.3619 609.5941)" class="st10" cx="73.2" cy="831.3" rx="1.7" ry="1.7"/>
			
				<ellipse transform="matrix(0.3492 -0.937 0.937 0.3492 -740.9989 612.058)" class="st10" cx="70.1" cy="839.5" rx="1.7" ry="1.7"/>
			
				<ellipse transform="matrix(0.3492 -0.937 0.937 0.3492 -750.6359 614.522)" class="st10" cx="67.1" cy="847.7" rx="1.7" ry="1.7"/>
			
				<ellipse transform="matrix(0.3492 -0.937 0.937 0.3492 -760.2729 616.9859)" class="st10" cx="64" cy="855.8" rx="1.7" ry="1.7"/>
			<ellipse transform="matrix(0.3492 -0.937 0.937 0.3492 -769.9099 619.4498)" class="st10" cx="61" cy="864" rx="1.7" ry="1.7"/>
			
				<ellipse transform="matrix(0.3492 -0.937 0.937 0.3492 -779.5469 621.9138)" class="st10" cx="58" cy="872.2" rx="1.7" ry="1.7"/>
			
				<ellipse transform="matrix(0.3492 -0.937 0.937 0.3492 -789.184 624.3776)" class="st10" cx="54.9" cy="880.3" rx="1.7" ry="1.7"/>
		</g>
	</g>
	
		<ellipse transform="matrix(0.3492 -0.937 0.937 0.3492 -786.7169 634.0273)" class="st10" cx="63.1" cy="883.4" rx="1.7" ry="1.7"/>
	
		<ellipse transform="matrix(0.3492 -0.937 0.937 0.3492 -784.2231 643.7809)" class="st10" cx="71.4" cy="886.5" rx="1.7" ry="1.7"/>
	
		<ellipse transform="matrix(0.3492 -0.937 0.937 0.3492 -781.7294 653.5345)" class="st10" cx="79.6" cy="889.6" rx="1.7" ry="1.7"/>
	
		<ellipse transform="matrix(0.3492 -0.937 0.937 0.3492 -779.2357 663.2881)" class="st10" cx="87.9" cy="892.6" rx="1.7" ry="1.7"/>
	
		<ellipse transform="matrix(0.3492 -0.937 0.937 0.3492 -776.7419 673.0417)" class="st10" cx="96.2" cy="895.7" rx="1.7" ry="1.7"/>
	
		<ellipse transform="matrix(0.3492 -0.937 0.937 0.3492 -774.2482 682.7953)" class="st10" cx="104.4" cy="898.8" rx="1.7" ry="1.7"/>
	
		<ellipse transform="matrix(0.3492 -0.937 0.937 0.3492 -771.7545 692.5489)" class="st10" cx="112.7" cy="901.9" rx="1.7" ry="1.7"/>
	<ellipse transform="matrix(0.3492 -0.937 0.937 0.3492 -769.2607 702.3025)" class="st10" cx="121" cy="905" rx="1.7" ry="1.7"/>
	<ellipse transform="matrix(0.3492 -0.937 0.937 0.3492 -766.767 712.0561)" class="st10" cx="129.2" cy="908" rx="1.7" ry="1.7"/>
	
		<ellipse transform="matrix(0.3492 -0.937 0.937 0.3492 -764.2733 721.8097)" class="st10" cx="137.5" cy="911.1" rx="1.7" ry="1.7"/>
	
		<ellipse transform="matrix(0.3492 -0.937 0.937 0.3492 -761.7796 731.5633)" class="st10" cx="145.8" cy="914.2" rx="1.7" ry="1.7"/>
	
		<ellipse transform="matrix(0.3492 -0.937 0.937 0.3492 -759.2859 741.3169)" class="st10" cx="154.1" cy="917.3" rx="1.7" ry="1.7"/>
	
		<ellipse transform="matrix(0.3492 -0.937 0.937 0.3492 -756.7921 751.0705)" class="st10" cx="162.3" cy="920.4" rx="1.7" ry="1.7"/>
	
		<ellipse transform="matrix(0.3492 -0.937 0.937 0.3492 -754.2984 760.8241)" class="st10" cx="170.6" cy="923.5" rx="1.7" ry="1.7"/>
	
		<ellipse transform="matrix(0.3492 -0.937 0.937 0.3492 -751.8047 770.5777)" class="st10" cx="178.9" cy="926.5" rx="1.7" ry="1.7"/>
	
		<ellipse transform="matrix(0.3492 -0.937 0.937 0.3492 -749.311 780.3313)" class="st10" cx="187.1" cy="929.6" rx="1.7" ry="1.7"/>
	
		<ellipse transform="matrix(0.3492 -0.937 0.937 0.3492 -746.8173 790.0849)" class="st10" cx="195.4" cy="932.7" rx="1.7" ry="1.7"/>
	<g>
		<g>
			
				<ellipse transform="matrix(0.3492 -0.937 0.937 0.3492 -602.9899 669.9652)" class="st10" cx="180.8" cy="769.1" rx="1.7" ry="1.7"/>
			
				<ellipse transform="matrix(0.3492 -0.937 0.937 0.3492 -612.627 672.4291)" class="st10" cx="177.8" cy="777.3" rx="1.7" ry="1.7"/>
			
				<ellipse transform="matrix(0.3492 -0.937 0.937 0.3492 -622.264 674.8931)" class="st10" cx="174.7" cy="785.4" rx="1.7" ry="1.7"/>
		</g>
	</g>
	
		<rect x="79.2" y="837.1" transform="matrix(0.937 0.3492 -0.3492 0.937 302.5768 -1.4035)" class="st11" width="152" height="2.8"/>
	<rect x="69.7" y="862.4" transform="matrix(0.937 0.3492 -0.3492 0.937 310.8427 3.4963)" class="st11" width="152" height="2.8"/>
	<rect x="60.4" y="887.4" transform="matrix(0.937 0.3492 -0.3492 0.937 318.9637 8.3102)" class="st11" width="152" height="2.8"/>
	
		<rect x="77.2" y="802.2" transform="matrix(0.937 0.3492 -0.3492 0.937 293.8926 -6.5238)" class="st8" width="175.6" height="19.3"/>
	
		<ellipse transform="matrix(0.3492 -0.937 0.937 0.3492 -654.6066 683.1622)" class="st12" cx="164.5" cy="812.8" rx="18.9" ry="18.9"/>
	<path class="st13" d="M171.7,810.1c1.1-3-0.4-6.3-3.4-7.4c-3-1.1-6.3,0.4-7.4,3.4c-0.9,2.4-0.1,5,1.8,6.5l-6.8,8.6l9.5,3.5
		l0.3-10.9C168.3,814,170.7,812.6,171.7,810.1z"/>
</g>
<g>
	<path class="st14" d="M1082.9,893.1c-3.8-0.7-7.1-0.5-9.6-0.2C1075.6,893.1,1078.9,893.3,1082.9,893.1z"/>
	<path class="st14" d="M1037.9,863.6c-2.5-0.5-5.3-1.1-8.4-1.6c-5.8-1.1-10.4-1.8-14-2.2c4.6,6.6,9.7,11.8,14.4,15.8L1037.9,863.6z"
		/>
	<path class="st14" d="M995,863c-4.2,2.7-9.1,7.2-11.3,14.4c-2.8,9.2-0.2,19.7,6.6,26.7c7.2,7.5,18,10.2,28.2,7.1
		c3.9-1.2,7.6-2.9,11.1-5c1.6-1,2.9-1.9,4-2.8c-4.5-2.2-7.9-4.3-9.8-5.6C1018.7,894.4,1003.7,883.4,995,863z"/>
	<path class="st14" d="M1100.3,763c-6.1,6.6-7.8,15.8-8.8,20.9c0,0,0,0.1,0,0.1l11.5-17.1C1102,765.7,1101.1,764.3,1100.3,763z"/>
	<path class="st14" d="M1134,735.8c-6.7-4.5-15.7-2.7-20.1,3.9c-1.2,1.8-1.9,3.7-2.3,5.6c9.2-1.5,19.4,0.4,28.5,5.6
		C1141.3,745.4,1139.1,739.3,1134,735.8z"/>
	<path class="st14" d="M1134.1,759.9c-6.6-3.6-13.8-5-20.3-4c1,1.6,2.4,3,4,4.1C1122.9,763.3,1129.3,763.1,1134.1,759.9z"/>
	<path class="st14" d="M1088.7,846.7c5.4-8.7,1.5-19.7,0.4-22.6c-0.9-1.4-1.8-3.2-2.8-5.1l-25.7,38.3c1.4,0.1,2.8,0,4.4-0.1
		C1071.4,856.6,1083.2,855.5,1088.7,846.7z"/>
	
		<rect x="1041" y="774.4" transform="matrix(0.5583 -0.8297 0.8297 0.5583 -182.1067 1213.6449)" class="st15" width="15.3" height="6.9"/>
	<path class="st16" d="M1116.5,894.7l4.5,10.6l15.8-37.2l-38,15.4c2.7,1,8,3.1,8,3.1c-1.1,1.4-3.5,2.5-6.1,3.3c4,3.1,6.9,6.7,9,9.9
		C1112.6,897.9,1114.9,896.1,1116.5,894.7z"/>
	<path class="st16" d="M1009,848.4c-1.6-3.4-3.7-8.4-5-14.6c-0.8-4-2.9-13.4-0.9-17.1c0,0,3.9,4.2,5.9,6.3l0-41l-28.5,28.7l11.5,0.2
		c-2.6,7.2-6,22.4-0.7,41.8c3.4-1.9,6.1-2.9,7.3-3.3C1000.8,848.8,1003.4,848.2,1009,848.4z"/>
	
		<rect x="1118" y="826.2" transform="matrix(0.5583 -0.8297 0.8297 0.5583 -191.0798 1300.4187)" class="st15" width="15.3" height="6.9"/>
	<g>
		<polygon class="st15" points="1055.8,773.4 1047.3,786.1 1044.3,790.5 1050.6,794.8 1053.6,790.4 1062.1,777.7 1065.3,772.9 
			1059,768.7 		"/>
		<polygon class="st15" points="1124,812.4 1120.8,817.1 1112.2,829.8 1109.2,834.2 1115.6,838.5 1118.6,834.1 1127.1,821.4 
			1130.3,816.6 		"/>
	</g>
	<path class="st17" d="M1142.6,723.2c-13.7-9.2-32.2-5.6-41.3,8.1c-4.3,6.3-5.7,13.7-4.8,20.7c1.6-1.3,3.5-2.4,5.5-3.5
		c3-1.5,6.3-2.6,9.7-3.1c0.3-2,1.1-3.9,2.3-5.6c4.5-6.7,13.5-8.4,20.1-3.9c5.1,3.4,7.3,9.5,6.1,15.2c-0.4,1.7-1.1,3.4-2.1,5
		c-1.1,1.6-2.4,2.9-3.9,3.9c-4.8,3.2-11.2,3.4-16.2,0c-1.6-1.1-3-2.5-4-4.1c-2.5,0.4-4.9,1.1-7.1,2.2c-2.6,1.3-4.7,3-6.4,4.9
		c0.8,1.4,1.7,2.7,2.7,3.9c1.8,2.1,3.9,4.1,6.3,5.7c2,1.3,4,2.4,6.2,3.2c12.6,4.8,27.3,0.4,35.2-11.2
		C1159.8,750.9,1156.2,732.3,1142.6,723.2z"/>
	<path class="st18" d="M1140.1,751c-9.1-5.2-19.2-7.2-28.5-5.6c-3.4,0.6-6.7,1.6-9.7,3.1c-2,1-3.8,2.2-5.5,3.5
		c-11.5,8.9-14.2,23.3-15.4,29.9c-0.5,2.7-0.8,5.3-0.9,7.9l5.2,3.5l6.2-9.3c0,0,0-0.1,0-0.1c0.9-5,2.7-14.3,8.8-20.9
		c1.8-1.9,3.9-3.6,6.4-4.9c2.2-1.1,4.6-1.8,7.1-2.2c6.5-1,13.6,0.4,20.3,4c1.5-1,2.8-2.3,3.9-3.9
		C1139,754.4,1139.7,752.7,1140.1,751z"/>
	<path class="st16" d="M1086.1,893.9c-1.1-0.4-2.1-0.6-3.2-0.8c-4,0.2-7.3,0-9.6-0.2c-0.2,0-0.4,0-0.5,0c0,0-2.6-0.2-5.1-0.6
		c-5.5-0.8-10.5-2.2-14.9-3.8c-3.8-1.4-7.2-2.9-10.1-4.4l11.4-16.9c-1.8-0.3-3.6-0.8-5.8-1.3c-2.7-0.6-6-1.4-10.2-2.3l-8,11.9
		c-4.7-3.9-9.8-9.1-14.4-15.8c-10.2-1.3-12.5-0.5-13.6-0.2c-1,0.3-3.8,1.4-7,3.4c8.8,20.3,23.7,31.4,29,34.9
		c1.9,1.3,5.2,3.4,9.8,5.6c3.1,1.5,6.9,3.1,11.1,4.4c8.1,2.6,18,4.3,29.3,3.5c10.6-0.7,19.4-3.4,26.3-6.5
		C1097.6,900.9,1093,896.2,1086.1,893.9z"/>
	<path class="st18" d="M1114,907.7c-0.3-0.8-1.6-4-4.2-8c-2.1-3.2-5-6.7-9-9.9c-3.1-2.5-6.9-4.7-11.5-6.1
		c-8.2-2.7-15.2-1.7-18.9-1.2c-7.4,1-13.4,3.6-17.8,6c4.5,1.6,9.4,3,14.9,3.8c2.5,0.4,5.1,0.6,5.1,0.6c0.2,0,0.4,0,0.5,0
		c2.6-0.3,5.9-0.5,9.6,0.2c1,0.2,2.1,0.4,3.2,0.8c7,2.3,11.6,7,14.4,11c2.4,3.4,3.5,6.3,3.6,6.5c2.2,6.1,1.9,11.8,1.3,15.5l10.5,1.8
		C1117.1,921.6,1116.5,914.3,1114,907.7z"/>
	<path class="st16" d="M1097.9,801.8l17.5-26c-2.1-0.8-4.2-1.8-6.2-3.2c-2.4-1.6-4.5-3.6-6.3-5.7l-11.5,17.1l-6.2,9.3l-5.2-3.5
		l-18-12.1l-8.5,12.7l23.1,15.6l-32.4,48.1c2.4,0.5,4.4,1,6.2,1.4c4.6,1.1,7.2,1.7,10,1.8l25.7-38.3l3.1-4.6l10,6.7l12.8,8.6
		l8.5-12.7L1097.9,801.8z"/>
	<path class="st18" d="M1001.9,859.6c1.1-0.3,3.4-1.1,13.6,0.2c3.6,0.4,8.1,1.1,14,2.2c3.2,0.6,6,1.1,8.4,1.6
		c4.3,0.9,7.6,1.6,10.2,2.3c2.2,0.5,4,0.9,5.8,1.3c4,0.8,7.3,1.1,12.1,0.7c7-0.6,23.4-2.2,31.8-15.4c7.5-12,3.8-25.6,1.6-31.2
		l-10-6.7l-3.1,4.6c0.9,2,1.9,3.7,2.8,5.1c1.2,2.9,5.1,13.9-0.4,22.6c-5.5,8.8-17.3,9.9-23.7,10.5c-1.7,0.2-3.1,0.2-4.4,0.1
		c-2.8-0.2-5.4-0.8-10-1.8c-1.8-0.4-3.8-0.9-6.2-1.4c-3.5-0.8-7.7-1.6-13-2.6c-10.6-1.9-17.6-2.8-22.4-3c-5.6-0.3-8.3,0.3-10.4,1
		c-1.1,0.4-3.9,1.4-7.3,3.3c-6.2,3.5-14.4,10.1-17.9,21.5c-4,13-0.5,27.3,9.2,37.3c1.9,1.9,3.9,3.6,6.1,5.1
		c9.5,6.4,21.5,8.2,32.9,4.8c4.7-1.5,9.2-3.5,13.4-6c4.7-2.8,7.3-5.2,9.6-7.5c-4.2-1.3-7.9-2.9-11.1-4.4c-1.1,0.9-2.4,1.8-4,2.8
		c-3.5,2.1-7.2,3.8-11.1,5c-10.2,3.1-21,0.4-28.2-7.1c-6.9-7.1-9.5-17.6-6.6-26.7c2.2-7.2,7.1-11.7,11.3-14.4
		C998.1,861,1000.9,860,1001.9,859.6z"/>
</g>
<g>
	<path class="st19" d="M1075.3,498.4l-24,30.6c-1.1,1.4-3,1.6-4.4,0.5l-4.9-3.9c-1.4-1.1-1.6-3-0.5-4.4l24-30.6
		c1.1-1.4,3-1.6,4.4-0.5l4.9,3.9C1076.1,495.1,1076.3,497,1075.3,498.4z"/>
	<path class="st19" d="M1121.2,574.7l14.7-18.7c0.7-0.9,0.5-2.2-0.3-2.9l-2.4-1.9c-0.9-0.7-2.2-0.5-2.9,0.3l-14.7,18.7
		c-0.7,0.9-0.5,2.2,0.3,2.9l2.4,1.9C1119.2,575.7,1120.5,575.6,1121.2,574.7z"/>
	<path class="st18" d="M1063.8,492.8l-19.3,24.6c-0.2-1.6-0.7-9.3,4.8-16.2C1054.7,494.3,1062.2,493,1063.8,492.8z"/>
	<polygon class="st7" points="1129.4,552.8 1117.1,568.5 1051.6,528.6 1075.1,498.6 	"/>
	<path class="st19" d="M1087.7,554l20-25.4c0.7-1,0.6-2.3-0.4-3.1l-4.3-3.4c-1-0.7-2.3-0.6-3.1,0.4l-20,25.4c-0.7,1-0.6,2.3,0.4,3.1
		l4.3,3.4C1085.6,555.1,1087,554.9,1087.7,554z"/>
	<path class="st19" d="M1018.2,571.1l24-30.6c1.1-1.4,0.8-3.3-0.5-4.4l-4.9-3.9c-1.4-1.1-3.3-0.8-4.4,0.5l-24,30.6
		c-1.1,1.4-0.8,3.3,0.5,4.4l4.9,3.9C1015.1,572.7,1017.1,572.5,1018.2,571.1z"/>
	<path class="st19" d="M1103.2,597.6l-14.7,18.7c-0.7,0.9-2,1-2.9,0.3l-2.4-1.9c-0.9-0.7-1-2-0.3-2.9l14.7-18.7c0.7-0.9,2-1,2.9-0.3
		l2.4,1.9C1103.7,595.5,1103.9,596.8,1103.2,597.6z"/>
	<path class="st18" d="M1010,561.3l19.3-24.6c-1.6,0.2-9.2,1.5-14.6,8.5C1009.3,552.2,1009.8,559.7,1010,561.3z"/>
	<polygon class="st7" points="1083.9,610.8 1096.2,595.1 1041.8,541 1018.3,570.9 	"/>
	<path class="st19" d="M1075.1,570.1l-20,25.4c-0.7,1-2.1,1.1-3.1,0.4l-4.3-3.4c-1-0.7-1.1-2.1-0.4-3.1l20-25.4
		c0.7-1,2.1-1.1,3.1-0.4l4.3,3.4C1075.7,567.7,1075.9,569.1,1075.1,570.1z"/>
	
		<ellipse transform="matrix(0.6175 -0.7866 0.7866 0.6175 -27.499 1061.4301)" class="st20" cx="1077.6" cy="559" rx="19.5" ry="10.7"/>
	
		<ellipse transform="matrix(0.6175 -0.7866 0.7866 0.6175 -27.499 1061.4301)" class="st21" cx="1077.6" cy="559" rx="15" ry="5.5"/>
</g>
<g>
	<path class="st15" d="M1162.6,228.4c0-2-0.1-4.5-0.6-7.3c-2.1-13.6-9-16-9.2-26.7c-0.1-6.8,2.5-7.5,2.1-15
		c-0.5-7.4-3.4-12.6-5.1-15.6c-9.7-17.1-34.8-28.3-38-29.7c-3.3-1.6-29.5-14-49.6-10.9c-3.5,0.6-9.6,1.5-15.6,5.8
		c-6.2,4.3-4.9,6.9-10.2,11c-8.5,6.5-15.1,2.7-27.2,9.5c-2.5,1.4-4.5,2.9-6,4.1c-1.2,0.9-2.1,2.1-2.7,3.5c-0.9,1.9-1.7,4.4-2,7.3
		c-0.1,1-0.2,2.8,0.5,5.7c0.4,1.7,1,3.7,2.1,6.3c1,2.3,2.2,4.9,4,8c2.8,4.9,7,11.4,13.4,18.4l32.8-10.8l28.9,11.1l-0.6,1.3
		l25.7,14.1l11.6,31.8c9.1,0,16.5-1.2,21.8-2.4c3.3-0.8,6.1-1.6,8.3-2.4c2.5-0.9,4.4-1.8,5.9-2.7c2.5-1.5,3.8-2.7,4.5-3.5
		c2-2.2,3.3-4.4,4.2-6.4C1162.2,231.4,1162.6,229.9,1162.6,228.4z"/>
	<g>
		<path class="st22" d="M1077.9,156.1c0.9,1.3,3,0.8,3,0.8l6,7.8c-0.1,0.3-0.3,0.6-0.5,0.9c-1.6,2.7-3.2,3-3.1,4.4c0,0,0,0.3,1,1.5
			l3.5,3.1c0,0-0.1,0.1-0.3,0.3c-0.1,0.2-0.3,0.5-0.3,0.9c-0.1,0.8,0.4,1.9,0.8,2.2s3.8,2.4,3.8,2.4s3.3,1,3.8,1.1s1.7-0.3,2.2-0.8
			c0.2-0.2,0.3-0.4,0.4-0.6c0.1-0.3,0.1-0.5,0.1-0.5l5.4,0.9c1.3-0.1,1.6-0.2,1.6-0.2c1.1-0.9,0.3-2.2,1.3-5.2
			c0.1-0.4,0.3-0.7,0.4-1l9.8-0.4c0,0,1,1.9,2.6,1.7c1.6-0.2,2.4-0.5,2.5-1.8c0.1-1.4-0.5-2.1-1.3-2.1c-0.9,0-0.7-0.2-0.1-0.3
			c0.6-0.1,1.2-0.9,1.3-1.9c0.1-1-1.2-1.8-3.2-1.9c-2-0.1-2,3.3-2,3.3l-7.7,0c0.9-3,0.1-5.7-0.1-6.3c-1.4-4.6-5.5-6.6-6.2-6.9
			c-0.8-0.3-4.9-2.1-9.3-0.2c-0.6,0.2-3.2,1.4-4.8,4.1l-5.1-5.9c0,0,2.6-2.2,1.2-3.7c-1.4-1.5-2.8-1.9-3.5-1.2s-0.9,1.7-0.6,2.2
			s0.3,0.8-0.3,0.1c-0.5-0.6-1.4-0.7-2.5,0.4C1076.8,154,1077,154.8,1077.9,156.1z M1099.8,170.5c1.3-0.3,2.6,1.2,2.9,1.6
			c0.8,1,1.7,2.8,1,3.7c-0.4,0.5-1.2,0.6-2.3,0.7c-1,0.1-1.8,0.1-2.4-0.4c-1-0.7-0.9-2.2-0.9-2.5
			C1098.1,172.7,1098.5,170.8,1099.8,170.5z M1092.9,174.6c0.4-0.3,1.3-0.8,1.9-0.5c0.6,0.3,0.7,1.2,0.8,1.8
			c0.1,0.9-0.1,2.1-0.5,2.2c-0.1,0-0.4-0.1-0.7-0.6c0-0.2,0-0.5,0-0.9c0-0.5-0.1-0.7-0.2-0.8c-0.3-0.3-1,0.2-1.1,0.2
			c-0.3,0.2-0.5,0.5-0.6,0.7c-0.7,0.2-0.9,0.1-1,0C1091.2,176.3,1092,175.2,1092.9,174.6z M1091.2,166.8c0.6,0,2.6-0.1,3.2,1.2
			c0.6,1.2-0.5,2.7-1.3,3.4c-0.3,0.3-1.3,1.2-2.5,0.9c-0.8-0.2-1.2-0.8-1.9-1.6c-0.7-0.9-1.1-1.5-1-2.2
			C1088,167.4,1090,166.9,1091.2,166.8z"/>
		<path class="st22" d="M1111.6,192.1c-0.6-0.8-1.9-0.9-1.9-0.9s-2.7-2.3-3.8-3.6c-1.1-1.4-3.1-5-3.1-5l-0.6-1.6
			c-0.4-0.1-0.9-0.1-1.4-0.1c-0.7,0-1.1,0.1-1.6,0.2c-0.5,0.4-1.1,0.7-1.7,1.5c-1,1.3-1.4,2.8-1.5,3.6c-0.8,0.2-2.5,0.7-4.5,0.1
			c-0.9-0.3-1.6-0.6-2.1-1c-0.6-0.2-1.3-0.4-2.1-1c-1.7-1.2-2.5-2.7-2.7-3.5c0,0,1.3-2.8,1.5-3.3c0.1-0.3,0.1-0.8,0-1.4
			c-0.1-0.4-0.1-0.7-0.2-1c0-0.3-0.1-0.7-0.2-1.1c-0.1-0.2-0.2-0.5-0.3-0.7l-0.7-0.5l-1.6,0.6c-2.5,0.7-4.5,0.8-5.9,0.8
			c-2.1,0-5.1-0.4-5.1-0.4s-0.8-1-1.9-0.9c-1,0.1-2.4,1.1-2.4,2.2c0,1.1,1.2,1.9,1.2,1.9s-1.1,0.6-0.8,2.1c0.2,1.5,2.1,1.8,2.1,1.8
			s0.8,0.2,1.8-0.3c1-0.5,1.6-2.8,1.6-2.8s0.7-0.4,3.6-0.7c2.9-0.3,5.7-0.8,5.7-0.8l1.4,0.4l-0.6,1.2c-1.3,1.1-1.5,1.8-1.5,2.3
			c0.1,1.1,1.5,1.5,2,3.3c0.1,0.5,0.1,0.9,0.1,1.1c0.2,0.5,0.4,0.9,0.6,1.4c0.3,0.3,1.7,1.4,3.1,1.1c0.2,0,0.3-0.1,0.5-0.2
			c0,0.1,0.1,0.3,0.2,0.5c0.6,1,1.8,1.3,2.1,1.4c0.5,0.1,0.9,0.1,1,0.1c1-0.1,1.7-0.5,2-0.7c2.1,0.2,3.1-0.2,3.6-0.8
			c0.8-0.8,1.2-2.6,1.2-2.6l0.6-1.2l1.2,0.8c0,0,1.4,2.4,3.1,4.8c1.7,2.4,1.8,3.2,1.8,3.2s-1.3,2-1.1,3c0.2,1.1,0.9,1.6,0.9,1.6
			s1.5,1.2,2.8,0.4c1.3-0.8,1-2,1-2s1.4,0.4,2.3-0.3C1112.3,194.6,1112.2,192.9,1111.6,192.1z"/>
		<path class="st22" d="M1088.1,179c0.2-0.3,0.1-0.6-0.2-0.7c0,0-0.1,0-0.1,0c-0.3-0.1-0.6,0-0.8,0.2c-0.2,0.2-0.2,0.4-0.4,0.6
			c-0.1,0.2-0.1,0.6,0.2,0.8c0,0,0.1,0,0.1,0.1c0.2,0.2,0.6,0.1,0.8-0.2C1087.8,179.4,1087.9,179.3,1088.1,179z"/>
		<path class="st22" d="M1089.2,179.8c0.2-0.3,0.1-0.7-0.1-0.8c0,0-0.1,0-0.1-0.1c-0.2-0.2-0.6,0-0.8,0.2c-0.2,0.3-0.3,0.4-0.4,0.7
			c-0.2,0.3-0.1,0.7,0.1,0.9c0,0,0.1,0,0.1,0.1c0.2,0.2,0.6,0.1,0.8-0.2C1088.9,180.2,1089,180,1089.2,179.8z"/>
		<path class="st22" d="M1090.3,180.6c0.2-0.3,0.1-0.7-0.2-0.8c0,0-0.1,0-0.1-0.1c-0.2-0.2-0.6-0.1-0.7,0.2
			c-0.2,0.3-0.3,0.4-0.4,0.8c-0.2,0.3-0.1,0.7,0.2,0.9c0,0,0.1,0,0.1,0.1c0.3,0.2,0.6,0.1,0.7-0.2
			C1090,181.1,1090.1,180.9,1090.3,180.6z"/>
		<path class="st22" d="M1091.4,181.2c0.2-0.3,0.1-0.7-0.2-0.8c0,0-0.1,0-0.1,0c-0.3-0.1-0.6,0-0.8,0.3c-0.2,0.3-0.3,0.5-0.4,0.8
			c-0.1,0.2,0,0.6,0.3,0.7c0,0,0.1,0,0.1,0c0.3,0.1,0.6,0.1,0.7-0.2C1091.1,181.8,1091.2,181.5,1091.4,181.2z"/>
		<path class="st22" d="M1091.6,182.7c0.3,0.1,0.6,0,0.7-0.3c0.1-0.3,0.2-0.5,0.3-0.8c0.1-0.3,0-0.7-0.2-0.8c0,0-0.1,0-0.1,0
			c-0.3-0.1-0.6,0.1-0.8,0.4c-0.2,0.4-0.3,0.6-0.4,0.8c-0.1,0.2,0,0.5,0.3,0.6C1091.5,182.7,1091.5,182.7,1091.6,182.7z"/>
		<path class="st22" d="M1092.7,183.2c0,0,0.1,0,0.1,0c0.3,0.1,0.6-0.1,0.8-0.4c0.1-0.3,0.2-0.5,0.3-0.8c0.1-0.3,0-0.6-0.3-0.7
			c0,0-0.1,0-0.1,0c-0.3-0.1-0.6,0.1-0.7,0.4c-0.1,0.3-0.2,0.5-0.3,0.8C1092.3,182.8,1092.5,183.1,1092.7,183.2z"/>
		<path class="st22" d="M1094.1,183.5c0,0,0.1,0,0.1,0c0.3,0.1,0.6-0.1,0.7-0.5c0.1-0.3,0.2-0.5,0.2-0.8c0.1-0.3-0.1-0.6-0.4-0.7
			c0,0-0.1,0-0.1,0c-0.3-0.1-0.6,0.1-0.7,0.4c-0.1,0.3-0.1,0.5-0.3,0.8C1093.6,183.1,1093.8,183.5,1094.1,183.5z"/>
		<path class="st22" d="M1095.4,183.8c0,0,0.1,0,0.1,0c0.3,0.1,0.6-0.1,0.7-0.4c0.1-0.3,0.1-0.4,0.2-0.7c0.1-0.3-0.1-0.6-0.3-0.7
			c0,0-0.1,0-0.1,0c-0.3-0.1-0.6,0-0.7,0.3c-0.1,0.3-0.1,0.4-0.2,0.8C1094.9,183.5,1095.1,183.8,1095.4,183.8z"/>
		<path class="st22" d="M1086.8,180.2C1086.7,180.1,1086.7,180.1,1086.8,180.2c-0.3-0.3-0.6-0.2-0.8,0c-0.2,0.2-0.2,0.4-0.4,0.6
			c-0.1,0.2-0.1,0.6,0.1,0.9c0,0,0,0.1,0.1,0.1c0.2,0.3,0.5,0.3,0.7,0c0.2-0.3,0.3-0.4,0.4-0.7
			C1087.1,180.8,1087,180.4,1086.8,180.2z"/>
		<path class="st22" d="M1086.7,182.8C1086.7,182.8,1086.7,182.8,1086.7,182.8c0.3,0.3,0.7,0.2,0.8-0.1c0.2-0.3,0.3-0.5,0.5-0.8
			c0.2-0.3,0.1-0.7-0.2-0.9c0,0-0.1,0-0.1-0.1c-0.2-0.2-0.6-0.1-0.7,0.2c-0.2,0.3-0.3,0.4-0.4,0.7
			C1086.4,182.1,1086.5,182.6,1086.7,182.8z"/>
		<path class="st22" d="M1087.8,183.8C1087.8,183.8,1087.9,183.8,1087.8,183.8c0.4,0.3,0.7,0.1,0.9-0.2c0.2-0.4,0.3-0.5,0.5-0.9
			c0.2-0.3,0.1-0.7-0.2-0.9c0,0-0.1,0-0.1-0.1c-0.3-0.2-0.6-0.1-0.8,0.3c-0.2,0.3-0.3,0.5-0.5,0.8
			C1087.5,183.1,1087.5,183.6,1087.8,183.8z"/>
		<path class="st22" d="M1089,184.6c0,0,0.1,0,0.1,0.1c0.3,0.2,0.7,0,0.8-0.4c0.2-0.4,0.3-0.6,0.4-0.9c0.2-0.3,0.1-0.7-0.2-0.9
			c0,0-0.1,0-0.1-0.1c-0.3-0.1-0.6,0-0.8,0.3c-0.2,0.4-0.3,0.5-0.5,0.9C1088.7,184,1088.7,184.4,1089,184.6z"/>
		<path class="st22" d="M1090.4,185.2c0,0,0.1,0,0.1,0c0.3,0.1,0.7-0.1,0.8-0.4c0.2-0.4,0.2-0.6,0.4-0.9c0.1-0.3,0-0.7-0.3-0.8
			c0,0-0.1,0-0.1,0c-0.3-0.1-0.7,0.1-0.8,0.4c-0.2,0.4-0.3,0.6-0.4,0.9C1089.9,184.7,1090.1,185.1,1090.4,185.2z"/>
		<path class="st22" d="M1091.8,185.6c0,0,0.1,0,0.1,0c0.3,0.1,0.7-0.2,0.8-0.5c0.1-0.4,0.2-0.5,0.3-0.9c0.1-0.3,0-0.7-0.3-0.8
			c0,0-0.1,0-0.1,0c-0.3-0.1-0.7,0.1-0.8,0.4c-0.2,0.4-0.2,0.6-0.4,0.9C1091.3,185.2,1091.5,185.5,1091.8,185.6z"/>
		<path class="st22" d="M1093.2,185.9c0,0,0.1,0,0.1,0c0.3,0,0.7-0.2,0.8-0.5c0.1-0.3,0.2-0.5,0.3-0.8c0.1-0.3,0-0.6-0.4-0.7
			c0,0-0.1,0-0.1,0c-0.3-0.1-0.7,0.1-0.8,0.5c-0.1,0.4-0.2,0.5-0.3,0.9C1092.7,185.5,1092.9,185.8,1093.2,185.9z"/>
		<path class="st22" d="M1094.7,185.9c0,0,0.1,0,0.1,0c0.3,0,0.7-0.3,0.8-0.5c0.1-0.3,0.1-0.4,0.2-0.7c0.1-0.3-0.1-0.5-0.4-0.5
			c0,0-0.1,0-0.1,0c-0.3-0.1-0.6,0.2-0.7,0.5c-0.1,0.3-0.2,0.5-0.3,0.8C1094.2,185.7,1094.4,185.9,1094.7,185.9z"/>
	</g>
	<path class="st23" d="M1110.8,248.9c0,0-8.5,5.3-12.6,15.8c-4.1,10.5-2.5,32.1-3.3,35.1c-0.8,3-4.5,9.8-4.5,9.8s7.4-2.6,14.8-10.2
		c7.4-7.6,10.1-15.3,10.7-20.6c0.6-5.3-0.1-17.4-0.1-17.4s1.1-0.7,1.3,0.2c0.2,0.9,3.4,6.9,10.4,11.9c7,5,12.6,6.4,17,7
		c4.4,0.7,10.2,1,10.2,1s-8.4-4.8-11.1-8.7c-2.7-3.9-4.8-12.1-7.2-15.1c-2.4-3-5-8.2-9.1-10.2c-4.1-2-9.3-3.8-9.3-3.8L1110.8,248.9z
		"/>
	<path class="st24" d="M1018.4,202.7c0,0,26.8-26.8,63.2-10s34,53.7,34,53.7s-16.5-26.1-40.2-37
		C1043.6,194.7,1018.4,202.7,1018.4,202.7z"/>
	<ellipse transform="matrix(0.4185 -0.9082 0.9082 0.4185 425.5847 1154.0724)" class="st25" cx="1114" cy="244.7" rx="7" ry="7"/>
	<path class="st26" d="M1152.8,239.9c-0.2-2.8-0.6-9.4-2.9-17.1c-0.7-2.3-1.1-3.4-1.7-4.8c-0.6-1.4-1.4-3.2-2.7-7.2
		c-1.7-4.8-2.6-7.4-2.7-8.9c-0.4-3.4,0.1-5.6,0.8-8.1c0.6-2.2,1.2-4.6,1.2-7.8c0-6.5-3.9-13.8-5.4-16.1
		c-9.9-15.5-30.4-25.6-31.9-26.3c0,0-22.1-10.6-42.7-8.5c-2.3,0.2-11.1,1.7-16.2,5.9c-2.5,2-3.9,4-5.2,5.8c-1.5,2.1-2.8,3.9-5.7,5.7
		c-1.2,0.8-3.9,1.7-8.8,3.4c-4,1.4-5.9,2-7.5,2.4c-1.5,0.4-2.7,0.7-4.9,1.6c-7.6,3-13,6.8-15.3,8.5c-0.7,0.5-1.5,1.1-2.2,1.6
		c0.4,1.7,1,3.7,2.1,6.3c1.2-1,2.4-1.9,3.7-2.8c2.3-1.6,7.1-5,14-7.8c1.9-0.8,2.9-1,4.3-1.4c1.5-0.4,3.6-1,7.9-2.5
		c5.4-1.9,8.2-2.9,9.9-4c4-2.4,5.9-5.1,7.6-7.4c1.2-1.6,2.2-3.1,4.1-4.6c3.8-3.1,7.7-3.7,13.3-4.6c16-2.5,32.6,4.9,39,8.2
		c0,0,21.7,10.3,29.5,23.9c2.7,4.7,4.6,8.1,4.6,13c0,2.4-0.5,4.2-1,6.2c-0.7,2.8-1.6,6-1,10.7c0.3,2.1,1.2,4.8,3,10.1
		c1.4,4.2,2.3,6.1,2.9,7.6c0.6,1.3,0.9,2.2,1.5,4.2c2.1,7,2.4,12.9,2.6,15.7c0.1,1.6,0.1,3.1,0.1,4.7c2.5-0.9,4.4-1.8,5.9-2.7
		C1152.9,241.8,1152.8,240.8,1152.8,239.9z"/>
</g>
<g>
	<g>
		<g>
			<g>
				
					<ellipse transform="matrix(0.5075 -0.8617 0.8617 0.5075 -422.6181 381.55)" class="st27" cx="122.5" cy="560.5" rx="18.5" ry="6.9"/>
			</g>
			<g>
				
					<ellipse transform="matrix(0.5075 -0.8617 0.8617 0.5075 -480.4351 380.7972)" class="st27" cx="92.9" cy="610.7" rx="18.5" ry="6.9"/>
			</g>
			<g>
				
					<ellipse transform="matrix(0.5075 -0.8617 0.8617 0.5075 -391.6942 381.9526)" class="st27" cx="138.3" cy="533.6" rx="4.4" ry="4.4"/>
			</g>
			<g>
				
					<ellipse transform="matrix(0.5075 -0.8617 0.8617 0.5075 -511.359 380.3946)" class="st27" cx="77.1" cy="637.5" rx="4.4" ry="4.4"/>
			</g>
			<g>
				
					<ellipse transform="matrix(0.9681 -0.2504 0.2504 0.9681 -140.485 52.4536)" class="st27" cx="135.9" cy="578.3" rx="18.5" ry="6.9"/>
			</g>
			<g>
				
					<ellipse transform="matrix(0.9681 -0.2504 0.2504 0.9681 -145.9359 38.7935)" class="st27" cx="79.5" cy="592.9" rx="18.5" ry="6.9"/>
			</g>
			<g>
				
					<ellipse transform="matrix(0.9681 -0.2504 0.2504 0.9681 -137.5695 59.7598)" class="st27" cx="166" cy="570.5" rx="4.4" ry="4.4"/>
			</g>
			<g>
				
					<ellipse transform="matrix(0.9681 -0.2504 0.2504 0.9681 -148.8514 31.4873)" class="st27" cx="49.3" cy="600.7" rx="4.4" ry="4.4"/>
			</g>
			<g>
				
					<ellipse transform="matrix(0.5075 -0.8617 0.8617 0.5075 -451.903 410.0821)" class="st27" cx="132.8" cy="600.4" rx="6.9" ry="18.5"/>
			</g>
			<g>
				
					<ellipse transform="matrix(0.5075 -0.8617 0.8617 0.5075 -451.1502 352.2651)" class="st27" cx="82.6" cy="570.8" rx="6.9" ry="18.5"/>
			</g>
			<g>
				
					<ellipse transform="matrix(0.5075 -0.8617 0.8617 0.5075 -452.3056 441.006)" class="st27" cx="159.6" cy="616.2" rx="4.4" ry="4.4"/>
			</g>
			<g>
				
					<ellipse transform="matrix(0.5075 -0.8617 0.8617 0.5075 -450.7476 321.3412)" class="st27" cx="55.7" cy="555" rx="4.4" ry="4.4"/>
			</g>
			<g>
				
					<ellipse transform="matrix(0.9681 -0.2504 0.2504 0.9681 -150.0405 48.349)" class="st27" cx="115" cy="613.8" rx="6.9" ry="18.5"/>
			</g>
			<g>
				
					<ellipse transform="matrix(0.9681 -0.2504 0.2504 0.9681 -136.3804 42.8981)" class="st27" cx="100.4" cy="557.4" rx="6.9" ry="18.5"/>
			</g>
			<g>
				
					<ellipse transform="matrix(0.9681 -0.2504 0.2504 0.9681 -157.3467 51.2645)" class="st27" cx="122.8" cy="643.9" rx="4.4" ry="4.4"/>
			</g>
			<g>
				
					<ellipse transform="matrix(0.9681 -0.2504 0.2504 0.9681 -129.0742 39.9826)" class="st27" cx="92.6" cy="527.2" rx="4.4" ry="4.4"/>
			</g>
		</g>
	</g>
	<path class="st28" d="M113.5,575.6c-5.5-3.2-12.6-1.4-15.8,4.1s-1.4,12.6,4.1,15.8c5.5,3.2,12.6,1.4,15.8-4.1
		C120.9,585.9,119,578.9,113.5,575.6z M104.7,590.6c-2.8-1.6-3.7-5.2-2.1-8c1.6-2.8,5.2-3.7,8-2.1c2.8,1.6,3.7,5.2,2.1,8
		C111.1,591.3,107.5,592.2,104.7,590.6z"/>
	<g>
		<path class="st29" d="M153.6,512.8l-4.6-2.7c-1.7-1-3.9-0.4-4.9,1.3l-7.6,13c-1,1.7-0.4,3.9,1.3,4.9l4.6,2.7
			c1.7,1,3.9,0.4,4.9-1.3l7.6-13C155.9,515.9,155.3,513.8,153.6,512.8z"/>
		<path class="st29" d="M77.6,642l-4.6-2.7c-1.7-1-3.9-0.4-4.9,1.3l-7.6,13c-1,1.7-0.4,3.9,1.3,4.9l4.6,2.7c1.7,1,3.9,0.4,4.9-1.3
			l7.6-13C79.8,645.1,79.2,643,77.6,642z"/>
		<path class="st29" d="M190.3,561.4c-0.5-1.9-2.4-3-4.3-2.6l-14.6,3.8c-1.9,0.5-3,2.4-2.6,4.3l1.3,5.2c0.5,1.9,2.4,3,4.3,2.6
			l14.6-3.8c1.9-0.5,3-2.4,2.6-4.3L190.3,561.4z"/>
		<path class="st29" d="M45.2,599c-0.5-1.9-2.4-3-4.3-2.6l-14.6,3.8c-1.9,0.5-3,2.4-2.6,4.3l1.3,5.2c0.5,1.9,2.4,3,4.3,2.6l14.6-3.8
			c1.9-0.5,3-2.4,2.6-4.3L45.2,599z"/>
		<path class="st29" d="M181.9,622.1l-13-7.6c-1.7-1-3.9-0.4-4.9,1.3l-2.7,4.6c-1,1.7-0.4,3.9,1.3,4.9l13,7.6c1.7,1,3.9,0.4,4.9-1.3
			l2.7-4.6C184.2,625.3,183.6,623.1,181.9,622.1z"/>
		<path class="st29" d="M52.7,546l-13-7.6c-1.7-1-3.9-0.4-4.9,1.3l-2.7,4.6c-1,1.7-0.4,3.9,1.3,4.9l13,7.6c1.7,1,3.9,0.4,4.9-1.3
			l2.7-4.6C55,549.2,54.4,547,52.7,546z"/>
		<path class="st29" d="M130.6,649.3c-0.5-1.9-2.4-3-4.3-2.6l-5.2,1.3c-1.9,0.5-3,2.4-2.6,4.3l3.8,14.6c0.5,1.9,2.4,3,4.3,2.6
			l5.2-1.3c1.9-0.5,3-2.4,2.6-4.3L130.6,649.3z"/>
		<path class="st29" d="M93,504.1c-0.5-1.9-2.4-3-4.3-2.6l-5.2,1.3c-1.9,0.5-3,2.4-2.6,4.3l3.8,14.6c0.5,1.9,2.4,3,4.3,2.6l5.2-1.3
			c1.9-0.5,3-2.4,2.6-4.3L93,504.1z"/>
	</g>
	<path class="st28" d="M136.5,536.6c-27-15.9-61.8-6.9-77.7,20.1s-6.9,61.8,20.1,77.7c27,15.9,61.8,6.9,77.7-20.1
		C172.5,587.4,163.5,552.6,136.5,536.6z M83.5,626.6c-22.7-13.3-30.2-42.5-16.9-65.2s42.5-30.2,65.2-16.9
		c22.7,13.3,30.2,42.5,16.9,65.2C135.3,632.4,106.2,639.9,83.5,626.6z"/>
</g>
<g>
	<path class="st30" d="M158.6,154.5c2.7,6.3,4.1,12.9,4.1,19.9c0,27.9-22.7,50.6-50.6,50.6c-27.9,0-50.6-22.7-50.6-50.6
		c0-6.9,1.4-13.6,4-19.9c2,0.7,4.1,1,6.2,1c-0.3,2.1-0.5,4.2-0.5,6.3c0,14.5,7.8,28,20.3,35.3c2.2,1.3,4.6,1.9,7.1,1.9
		c1.7,0,3.4-0.3,5-0.9c2.5-1,5.4-1.5,8.4-1.5c3,0,6,0.5,8.4,1.5c3.9,1.5,8.4,1.2,12.1-1c12.5-7.3,20.3-20.8,20.3-35.3
		c0-2.1-0.2-4.2-0.5-6.3c0.2,0,0.4,0,0.5,0C154.9,155.5,156.8,155.2,158.6,154.5L158.6,154.5z M158.6,154.5"/>
	<path class="st22" d="M123.7,180.2c0.2,0.3,0.4,1,0.1,1.7l0,0.1c-0.4,1-1.5,1.5-2.5,1.3c-6-1.6-12.4-1.6-18.4,0
		c-1,0.3-2.1-0.3-2.5-1.3l0-0.1c-0.3-0.8-0.1-1.4,0.1-1.7c0.3-0.6,0.8-1,1.4-1.1c3.4-0.9,6.8-1.3,10.3-1.3c3.5,0,6.9,0.4,10.3,1.3
		C122.9,179.3,123.4,179.7,123.7,180.2L123.7,180.2z M123.7,180.2"/>
	<path class="st31" d="M146.7,154.3c0.5,2.4,0.8,4.9,0.8,7.5c0,6.5-1.8,12.7-5,18.1l-4.1-10c4-2.5,6.7-6.9,6.7-11.9
		c0-1.6-0.3-3.2-0.8-4.6c0.7,0.3,1.4,0.6,2.1,0.8C146.5,154.2,146.6,154.3,146.7,154.3L146.7,154.3z M146.7,154.3"/>
	<path class="st31" d="M133.3,171.8l5.5,13.2c-2.5,2.9-5.5,5.4-9,7.4c-2.3,1.3-5,1.5-7.4,0.6c-3.1-1.2-6.7-1.8-10.4-1.8
		c-3.7,0-7.3,0.6-10.4,1.8c-2.4,0.9-5.2,0.7-7.4-0.6c-10.9-6.3-17.7-18.1-17.7-30.7c0-2.5,0.3-5,0.8-7.5c0.1,0,0.2-0.1,0.3-0.1
		c10.9-4.5,22.5-6.9,34.3-6.9c3.1,0,6.3,0.2,9.3,0.5c-2.7,2.6-4.4,6.1-4.4,10.1c0,7.7,6.3,14,14,14
		C131.8,172,132.6,171.9,133.3,171.8L133.3,171.8z M128.8,183.9c0.8-2,0.7-4.2-0.3-6.2c-1-1.9-2.7-3.3-4.8-3.9c-7.6-2-15.7-2-23.3,0
		c-2.1,0.5-3.9,2-4.8,3.9c-1,1.9-1.1,4.2-0.3,6.1l0,0.1c1.4,3.5,5.2,5.4,8.9,4.5c5.1-1.3,10.6-1.3,15.7,0c0.6,0.2,1.3,0.2,1.9,0.2
		C124.8,188.8,127.6,187,128.8,183.9L128.8,183.9z M104.7,160c0.7-1.3,0.3-2.9-1-3.7l-7.5-4.3c-1.3-0.7-2.9-0.3-3.7,1
		c-0.7,1.3-0.3,2.9,1,3.7l1.8,1c-0.2,0.1-0.4,0.2-0.5,0.4c-1.3,1.1-1.9,3-1.3,4.7c0.6,1.7,2.2,2.9,4,2.9c2,0,3.8-1.5,4.2-3.5
		c0.1-0.3,0.1-0.6,0.1-0.9c0.2,0,0.3,0.1,0.5,0.1C103.3,161.4,104.2,160.9,104.7,160L104.7,160z M104.7,160"/>
	<path class="st32" d="M131,149.3c4.8,0,8.6,3.9,8.6,8.6c0,4.8-3.9,8.6-8.6,8.6c-4.8,0-8.6-3.9-8.6-8.6
		C122.4,153.2,126.3,149.3,131,149.3L131,149.3z M131,149.3"/>
	<path class="st33" d="M175.6,120.1l-2.7,5.2l-3.1-0.6c-12.2-2.4-22.9-9.1-30.1-18.7l-0.4-0.5c-6.4-8.8-16.6-14-27.3-14.1
		c-10.6,0-20.8,5.3-27.2,14c-0.1,0.1-0.1,0.2-0.2,0.3c-0.1,0.1-0.1,0.2-0.2,0.2c-7.2,9.7-17.9,16.3-30.1,18.7l-3.1,0.6l-2.7-5.2
		l2.8-0.5c11.6-2,21.8-8.4,28.7-17.9c7.5-10.4,19.2-16.4,32.1-16.4c12.8,0,24.5,6,32.1,16.4c6.9,9.5,17.1,15.9,28.7,17.9
		L175.6,120.1z M175.6,120.1"/>
	<g>
		<defs>
			<rect id="SVGID_2_" x="41.6" y="79.6" width="140.8" height="151.1"/>
		</defs>
		<clipPath id="SVGID_3_">
			<use xlink:href="#SVGID_2_"  style="overflow:visible;"/>
		</clipPath>
		<path class="st34" d="M170.3,130.2l-7.2,13.8c-2.8,5.3-9.1,7.6-14.7,5.3c-11.6-4.8-23.8-7.3-36.4-7.3c-12.6,0-24.8,2.4-36.4,7.3
			c-5.6,2.3-11.9,0-14.6-5.3l-7.2-13.7l1.6-0.3c13.5-2.7,25.4-10.1,33.4-20.8c0.1-0.1,0.1-0.2,0.2-0.3c0.1-0.1,0.1-0.2,0.2-0.3
			c5.4-7.4,14-11.8,22.9-11.9c8.9,0,17.5,4.4,23,11.9l0.4,0.5c8,10.7,19.9,18.1,33.4,20.8L170.3,130.2z M121.8,108.6
			c1-1,1-2.7,0-3.8c-1-1.1-2.7-1.1-3.8,0l-6,6l-6-6c-1-1.1-2.7-1.1-3.8,0c-1,1-1,2.7,0,3.8l6,6l-6,6c-1,1-1,2.7,0,3.8
			c0.5,0.5,1.2,0.8,1.9,0.8c0.7,0,1.4-0.3,1.9-0.8l6-6l6,6c0.5,0.5,1.2,0.8,1.9,0.8c0.7,0,1.4-0.3,1.9-0.8c1-1,1-2.7,0-3.8l-6-6
			L121.8,108.6z M121.8,108.6"/>
		<path class="st35" d="M182.1,116.9c0.4,0.8,0.4,1.7,0,2.4l-14.3,27.1c-1.1,2.2-2.7,4-4.5,5.4c3.1,7.1,4.7,14.6,4.7,22.5
			c0,30.9-25.1,56-56,56c-30.9,0-56-25.1-56-56c0-7.8,1.6-15.4,4.7-22.5c-1.8-1.4-3.4-3.3-4.5-5.5l-14.3-27.1
			c-0.4-0.8-0.4-1.7,0-2.4c0.4-0.8,1.1-1.3,1.9-1.5l6.5-1.1c10.2-1.8,19.2-7.4,25.3-15.8c8.6-11.8,21.8-18.6,36.4-18.6
			c14.6,0,27.9,6.8,36.4,18.6c6.1,8.4,15.1,14,25.3,15.8l6.5,1.1C181,115.6,181.8,116.1,182.1,116.9L182.1,116.9z M172.9,125.3
			l2.7-5.2l-2.8-0.5c-11.6-2-21.8-8.4-28.7-17.9c-7.5-10.4-19.2-16.4-32.1-16.4c-12.8,0-24.5,6-32.1,16.4
			c-6.9,9.5-17.1,15.9-28.7,17.9l-2.8,0.5l2.7,5.2l3.1-0.6c12.2-2.4,22.9-9.1,30.1-18.7c0.1-0.1,0.1-0.2,0.2-0.2
			c0.1-0.1,0.1-0.2,0.2-0.3c6.4-8.8,16.6-14,27.2-14c10.7,0,20.8,5.3,27.3,14.1l0.4,0.5c7.2,9.7,17.9,16.3,30.1,18.7L172.9,125.3z
			 M163.1,144l7.2-13.8l-1.5-0.3c-13.5-2.7-25.4-10.1-33.4-20.8l-0.4-0.5c-5.4-7.4-14-11.9-23-11.9c-8.9,0-17.5,4.4-22.9,11.9
			c-0.1,0.1-0.1,0.2-0.2,0.3c-0.1,0.1-0.1,0.2-0.2,0.3c-8,10.7-19.9,18.1-33.4,20.8l-1.6,0.3L61,144c2.8,5.3,9.1,7.6,14.6,5.3
			c11.6-4.8,23.8-7.3,36.4-7.3c12.6,0,24.8,2.4,36.4,7.3C154,151.5,160.3,149.3,163.1,144L163.1,144z M162.6,174.4
			c0-6.9-1.4-13.6-4.1-19.9c-1.8,0.6-3.7,1-5.7,1c-0.2,0-0.4,0-0.5,0c0.3,2.1,0.5,4.2,0.5,6.3c0,14.5-7.8,28-20.3,35.3
			c-3.7,2.1-8.2,2.5-12.1,1c-2.5-1-5.4-1.5-8.4-1.5c-3,0-6,0.5-8.4,1.5c-1.6,0.6-3.3,0.9-5,0.9c-2.5,0-4.9-0.6-7.1-1.9
			c-12.5-7.3-20.3-20.8-20.3-35.3c0-2.1,0.2-4.2,0.5-6.3c-2.1,0.1-4.2-0.3-6.2-1c-2.7,6.3-4,12.9-4,19.9c0,27.9,22.7,50.6,50.6,50.6
			C139.9,225,162.6,202.3,162.6,174.4L162.6,174.4z M147.5,161.8c0-2.5-0.3-5-0.8-7.5c-0.1,0-0.2-0.1-0.3-0.1
			c-0.7-0.3-1.4-0.6-2.1-0.8c0.5,1.4,0.8,3,0.8,4.6c0,5-2.7,9.5-6.7,11.9l4.1,10C145.7,174.5,147.5,168.2,147.5,161.8L147.5,161.8z
			 M138.8,185l-5.5-13.2c-0.7,0.1-1.5,0.2-2.3,0.2c-7.7,0-14-6.3-14-14c0-4,1.7-7.6,4.4-10.1c-3.1-0.3-6.2-0.5-9.3-0.5
			c-11.8,0-23.4,2.3-34.3,6.9c-0.1,0-0.2,0.1-0.3,0.1c-0.5,2.4-0.8,4.9-0.8,7.5c0,12.6,6.8,24.3,17.7,30.7c2.3,1.3,5,1.5,7.4,0.6
			c3.1-1.2,6.7-1.8,10.4-1.8c3.7,0,7.3,0.6,10.4,1.8c2.4,0.9,5.2,0.7,7.4-0.6C133.2,190.5,136.3,187.9,138.8,185L138.8,185z
			 M139.7,158c0-4.8-3.9-8.6-8.6-8.6c-4.8,0-8.6,3.9-8.6,8.6c0,4.8,3.9,8.6,8.6,8.6C135.8,166.6,139.7,162.7,139.7,158L139.7,158z
			 M139.7,158"/>
	</g>
	<path class="st36" d="M128.5,177.8c1,1.9,1.1,4.2,0.3,6.2l0,0.1c-1.2,2.9-4,4.7-7,4.7c-0.6,0-1.3-0.1-1.9-0.2
		c-5.1-1.3-10.6-1.3-15.7,0c-3.7,0.9-7.5-1-8.9-4.5l0-0.1c-0.8-2-0.7-4.2,0.3-6.1c1-1.9,2.7-3.3,4.8-3.9c7.6-2,15.7-2,23.3,0
		C125.8,174.5,127.5,175.9,128.5,177.8L128.5,177.8z M123.8,182c0.3-0.8,0.1-1.4-0.1-1.7c-0.3-0.6-0.8-1-1.4-1.1
		c-3.4-0.9-6.8-1.3-10.3-1.3c-3.5,0-6.9,0.4-10.3,1.3c-0.6,0.2-1.1,0.6-1.4,1.1c-0.2,0.3-0.4,1-0.1,1.7l0,0.1c0.4,1,1.5,1.5,2.5,1.3
		c6-1.6,12.4-1.6,18.4,0C122.3,183.6,123.4,183.1,123.8,182L123.8,182z M123.8,182"/>
	<path class="st36" d="M121.8,104.8c1,1,1,2.7,0,3.8l-6,6l6,6c1,1,1,2.7,0,3.8c-0.5,0.5-1.2,0.8-1.9,0.8c-0.7,0-1.4-0.3-1.9-0.8
		l-6-6l-6,6c-0.5,0.5-1.2,0.8-1.9,0.8c-0.7,0-1.4-0.3-1.9-0.8c-1-1-1-2.7,0-3.8l6-6l-6-6c-1-1-1-2.7,0-3.8c1-1.1,2.7-1.1,3.8,0l6,6
		l6-6C119,103.7,120.7,103.7,121.8,104.8L121.8,104.8z M121.8,104.8"/>
	<path class="st36" d="M103.7,156.4c1.3,0.7,1.7,2.4,1,3.7c-0.5,0.9-1.4,1.4-2.3,1.4c-0.2,0-0.3,0-0.5-0.1c0,0.3,0,0.6-0.1,0.9
		c-0.4,2-2.2,3.5-4.2,3.5c-1.8,0-3.5-1.2-4-2.9c-0.6-1.7-0.1-3.6,1.3-4.7c0.2-0.1,0.3-0.3,0.5-0.4l-1.8-1c-1.3-0.7-1.7-2.4-1-3.7
		c0.7-1.3,2.4-1.7,3.7-1L103.7,156.4z M103.7,156.4"/>
</g>
</svg>
