<svg id="圖層_1" data-name="圖層 1" xmlns="http://www.w3.org/2000/svg" xmlns:xlink="http://www.w3.org/1999/xlink" viewBox="0 0 1252 2001.65"><defs><style>.cls-1{fill:url(#未命名漸層_8);}.cls-2{fill:#dfb593;stroke:#ddb392;stroke-linejoin:round;stroke-width:31.72px;}.cls-3{fill:#d2ab89;}.cls-4{fill:#d9b89b;}.cls-5{fill:#d8b596;}.cls-6,.cls-7{fill:none;stroke:#edaea9;stroke-miterlimit:10;stroke-width:25.38px;}.cls-7{stroke-dasharray:58.09 58.09;}</style><radialGradient id="未命名漸層_8" cx="597.99" cy="1000.83" r="824.39" gradientTransform="translate(0) scale(1.05 1)" gradientUnits="userSpaceOnUse"><stop offset="0.42" stop-color="#f8d5b7"/><stop offset="0.85" stop-color="#f1c199"/></radialGradient></defs><title>bg_small</title><rect class="cls-1" width="1252" height="2001.65" rx="65.99" ry="65.99"/><path class="cls-2" d="M110.66,561.05c14.63-19.54,141-187.56,227.9-264.87,19.65-17.48,45.76-37.85,78.83-35.73,32.67,2.1,61.18,25.46,64.6,28.33,17.59,14.73,19.37,23.95,35.31,37.16,22.22,18.41,45.81,22.92,62.75,23.73a146.49,146.49,0,0,0,54.64-33.77c26.46-25.69,30.61-47.92,54-68,12.88-11.06,34.26-23.75,69.14-24.24,56.6,25.69,96.68,80.68,99.19,138.53,2.35,54.13-28.83,96.39-43.84,116.73-25.38,34.41-53.78,51.19-70.71,59.23a1077.48,1077.48,0,0,1-1.38,152.93c-5.8,72.28-8.7,108.5-23.86,134.93-35.83,62.47-85.84,30.23-135.76,104.28-10.92,16.2-31.13,46.18-39.84,91.43-4.58,23.83-3.4,38.48-10.44,66a242.62,242.62,0,0,1-29.11,68.42c26.49,56.07,16.74,82.74,14,89.05-14.85,34.54-63.42,28.62-138.35,19.48-83.72-10.21-97.23-34.41-101.58-45.76-4.77-12.45-6.42-30-2.16-45.16,6.66-23.79,23.83-27.83,37.16-44.85,11.76-15,22.73-42.89,18-99.56A1050.07,1050.07,0,0,0,229.46,904C185.4,856.7,164.37,843.36,132,804.58c-26.26-31.45-61.73-81.7-93.64-159Z" transform="translate(28.02)"/><path class="cls-2" d="M793.22,951.65c-37.14-24.85-94.61-26-131.39,16.8-34.33,39.9-45.81,112.36-24,155.37,9.37,18.45,26.44,27.65,60.2,45.3,124.89,65.31,132,68.75,138.85,72.14,101,49.77,119.14,68.29,142.27,52.62,22.55-15.27,36.74-54.17,31.73-86.32-1.69-10.86-6.79-28.75-38.26-60.41-40.54-40.78-60-39.18-90.16-64.23C824.94,1035.09,841.13,983.72,793.22,951.65Z" transform="translate(28.02)"/><path class="cls-3" d="M667.35,577.87l-60.17-41.51,34.58-68.61c3.32-6.59,1.68-15.44-3.66-19.77L620,433.26c-5.34-4.33-12.36-2.5-15.68,4.08l-36.35,71.94L500.71,462.9c-5.57-3.84-12.47-1.37-15.42,5.52l-10,23.46c-3,6.9-.83,15.62,4.75,19.47l64.41,44.46-41.68,82.5c-3.36,6.64-1.73,15.56,3.63,19.92l18.23,14.83c5.36,4.36,12.42,2.51,15.77-4.14l43.34-86,63.1,43.56c5.58,3.86,12.49,1.36,15.41-5.57l9.95-23.55C675.08,590.45,672.93,581.72,667.35,577.87Z" transform="translate(28.02)"/><path class="cls-4" d="M430.89,1655c10.39,3.19,18.06-11.73,18.06-11.73l63.76,14.2c0.63,2.41,1.24,5.09,1.81,8.54,4.23,25.86-2.08,36.61,4.68,44.94,0,0,1.56,1.74,11.65,4l30.6-.39a15.88,15.88,0,0,0,.16,3.38,17.75,17.75,0,0,0,2.49,6.9c3.2,5.12,10.42,9.1,13.89,9.17s29-6.41,29-6.41,20.21-12.08,23-14.68,6.74-11.12,6.94-17.62a18.47,18.47,0,0,0-.92-6.38,17,17,0,0,0-1.74-3.88l29.86-25.17c5.95-7.92,6.37-10.21,6.37-10.21,1.56-11.68-8.55-15.76-17.21-39.77a87,87,0,0,1-2.59-8.45l44.46-57.58s13.11,6.47,20-3.66,9.26-16.6,4-25.28c-5.84-9.72-11.76-9.95-15.71-5.54-4.37,4.87-4.3,2.47-1.9-1.44S703,1495.6,699,1488.9s-13.78-4.72-23.87,6.2,5.22,31.69,5.22,31.69l-36.8,43.56A91.1,91.1,0,0,0,615,1531.66c-27.19-20.37-55.46-10-60.61-8s-33,14.35-45.5,50.77c-1.59,4.61-8.67,26.69-5.06,52.57l-50.87-8.45s2.72-28.13-10.66-29.61-22.3,4.07-22.44,12.48,3.13,15.94,6.94,17.36,5,3.32-.87,2.57c-5.31-.68-10.05,3.86-10.25,16.07C415.48,1648.35,420.49,1651.86,430.89,1655Zm169-33.64c4.82-9.68,17.66-7.19,21.43-6.46,8,1.56,20.63,7.82,21.44,17.88,0.45,5.6-2.92,10.23-7.82,16.95-4.59,6.29-8,10.91-13.25,11.52-8,.93-14.2-8.06-15.92-10.54C601.45,1644.46,595.28,1630.72,599.91,1621.41Zm-14.29,64.38c0.77-4.16,2.29-12.3,7.06-14.09,4.5-1.68,9,3.38,11.78,6.44,4.66,5.2,8.88,13.68,7.19,16.57-0.57,1-2.07,1.62-6.06.24a41.05,41.05,0,0,0-3.87-5.33c-2.37-2.76-3.55-4.14-4.85-4-2.78.4-4,7-4.15,7.6a20.24,20.24,0,0,0,.12,7.84c-2.38,5-3.88,5.93-4.85,5.67C585.23,1706,583.91,1694.93,585.61,1685.79Zm-43.14-38.93c2.72-3.36,12-14.8,20.43-10.48,8.12,4.15,9.55,19.82,9,28.12-0.22,3.27-1,15.1-8,20.23-4.58,3.39-9.49,2.12-16.16.39-7.13-1.85-12-3.12-14.31-8C529.38,1668.35,536.67,1654,542.47,1646.86Z" transform="translate(28.02)"/><path class="cls-4" d="M753.51,1688.71c-6.61-1.92-12.65,5.14-12.65,5.14s-23.34,1.27-34.63-1-37.11-13.85-37.11-13.85l-9.93-6.78a63,63,0,0,0-7.32,7.45,60.36,60.36,0,0,0-6.86,9.85c-0.74,4.94-2,10.76-1.46,18.49,1,13.54,6.11,25.45,8.79,31.17-2.75,6.13-9.21,18.45-21.4,26.26a42.36,42.36,0,0,1-14.58,5.93,40.07,40.07,0,0,1-14.59,5.94c-13.34,2.45-24.07-3.19-28.75-6.11l-7.62-29.52c-0.58-2.24-3.46-5.63-6.21-8.47a68.21,68.21,0,0,0-5.34-5.12,26.36,26.36,0,0,0-6-5.46,21.07,21.07,0,0,0-4.6-2.2l-5.3,1-4.9,12.82c-8.83,18.56-18,30.78-24.8,38.57-10.21,11.67-26.65,26.5-26.65,26.5s-8.26-1.26-12.75,5.18-6.53,20.49-1.64,27.58,14.63,5.12,14.63,5.12a19.24,19.24,0,0,0,5.3,17.68c7.95,8,18.55-.61,18.55-0.61s4.72-3.58,7.12-12.16-4.77-26.64-4.77-26.64,1.41-6.35,14.33-24.81,23.89-37.29,23.89-37.29l8.76-5.64,2.77,10.74c-1.52,14.2,1,20.14,3.55,23,5.48,6.11,14.08,1,24.13,9.32a31.43,31.43,0,0,1,5.7,6.26l9.25,5.14c2.91,0,14.45-.4,20-10.79a22.7,22.7,0,0,0,1.63-3.91,14.05,14.05,0,0,0,3.16,2c7.37,3.28,14.52-2,16.25-3.32a25.74,25.74,0,0,0,5.08-5,35.2,35.2,0,0,0,6.29-16.08c11.2-10.39,13.64-19,13.6-25.23-0.06-9.47-6-23-6-23l-2.78-10.71,9.71-1.86s17.67,7.19,36.66,12.63,23.09,9.53,23.09,9.53,2.65,19.83,8.58,25,11.39,4.59,11.39,4.59,12.52-.82,15.17-13.1-4-18.14-4-18.14,8.74-5.53,9.36-14.83S760.12,1690.62,753.51,1688.71Z" transform="translate(28.02)"/><path class="cls-4" d="M582.4,1740.46c-0.38-2.48-2.26-4-4.12-3.15l-0.66.31a5.48,5.48,0,0,0-2.7,5.61c0.38,2.39.56,3.58,1,6,0.36,2.25,2.25,4,4.23,3.75l0.71-.08c2-.24,3.21-2.73,2.72-5.52C583,1744.37,582.81,1743.12,582.4,1740.46Z" transform="translate(28.02)"/><path class="cls-4" d="M590.92,1738.84c-0.39-2.45-2.44-4.73-4.35-4.4l-0.68.13c-1.91.41-3.07,3.14-2.69,5.62,0.41,2.67.6,3.94,1.14,7,0.5,2.84,2.53,4.91,4.54,4.65l0.72-.09c2-.26,3.19-2.85,2.62-5.72C591.6,1742.92,591.33,1741.47,590.92,1738.84Z" transform="translate(28.02)"/><path class="cls-4" d="M599.75,1737.69c-0.58-2.78-2.54-4.63-4.43-4.19l-0.68.15c-1.92.39-3.22,2.7-2.82,5.17,0.43,2.65.71,4.14,1.3,7.17,0.55,2.82,2.68,4.89,4.69,4.41l0.72-.17c2-.5,3.23-2.89,2.77-5.21C600.79,1742.52,600.37,1740.68,599.75,1737.69Z" transform="translate(28.02)"/><path class="cls-4" d="M607.91,1735c-0.79-3.08-2.91-5-4.68-4.22l-0.63.26c-1.76.74-2.67,3.67-2.07,6.49,0.64,3,1.08,4.9,1.58,7.34,0.47,2.27,2.45,3.6,4.41,2.88l0.7-.26a4.39,4.39,0,0,0,2.62-5Z" transform="translate(28.02)"/><path class="cls-4" d="M615.78,1744a4.6,4.6,0,0,0,2.17-5.56c-0.76-2.33-1.25-4.24-2.1-7.2-0.79-2.76-2.87-4.51-4.67-3.75l-0.64.27c-1.81.75-2.65,3.85-1.85,6.93l2,7.5a3.19,3.19,0,0,0,4.45,2.12Z" transform="translate(28.02)"/><path class="cls-4" d="M623.42,1740.1l0.66-.38c1.85-1.09,2.62-4.34,1.73-7-1-2.88-1.42-4.29-2.33-6.64-0.85-2.19-2.86-3.36-4.56-2.37l-0.61.35c-1.72,1-2.51,4-1.72,6.73,0.85,2.91,1.33,4.79,2.11,7.16C619.44,1740.15,621.56,1741.17,623.42,1740.1Z" transform="translate(28.02)"/><path class="cls-4" d="M631.37,1734.76l0.63-.45c1.76-1.27,2.43-4.43,1.51-7.09-1-2.86-1.41-3.93-2.34-6.23-0.86-2.14-3.08-3.35-4.85-2.29l-0.63.39c-1.75,1.1-2.36,4.26-1.48,6.39,0.94,2.29,1.42,3.62,2.37,6.57C627.45,1734.8,629.61,1736,631.37,1734.76Z" transform="translate(28.02)"/><path class="cls-4" d="M639,1729.25l0.61-.45a5.71,5.71,0,0,0,1.66-6.15c-0.81-2.24-1.22-3.33-2-5.53a3.7,3.7,0,0,0-4.79-2.37l-0.68.28c-1.9.79-2.72,3.42-1.86,5.57,0.92,2.31,1.34,3.37,2.32,6.18C635.16,1729.4,637.31,1730.51,639,1729.25Z" transform="translate(28.02)"/><path class="cls-4" d="M581.17,1755.06l-0.72,0c-2,.11-3.33,1.92-3,4.15l1,6a6.93,6.93,0,0,0,4.57,5.21l0.78,0.19c2.18,0.52,3.59-1.33,3.13-3.94l-1.23-7C585.22,1757.08,583.18,1754.94,581.17,1755.06Z" transform="translate(28.02)"/><path class="cls-4" d="M592.65,1772l0.78,0c2.2,0.1,3.52-2.31,2.94-5.22l-1.56-7.79c-0.58-2.9-2.7-5-4.74-4.73l-0.73.08c-2,.23-3.27,2.67-2.8,5.31l1.26,7.1C588.29,1769.42,590.45,1771.83,592.65,1772Z" transform="translate(28.02)"/><path class="cls-4" d="M602.32,1771.68l0.78-.1c2.19-.3,3.38-3.16,2.68-6.22l-1.87-8.21c-0.7-3.06-2.89-5-4.91-4.54l-0.72.18c-2,.49-3.19,3.17-2.6,6.09l1.59,7.84C597.87,1769.65,600.13,1771.95,602.32,1771.68Z" transform="translate(28.02)"/><path class="cls-4" d="M611.84,1769.67l0.76-.24c2.13-.68,3.18-3.88,2.39-7l-2.14-8.3c-0.8-3.09-3-4.94-5-4.24l-0.71.25c-2,.69-3.05,3.67-2.34,6.73l1.9,8.23C607.38,1768.22,609.71,1770.32,611.84,1769.67Z" transform="translate(28.02)"/><path class="cls-4" d="M621,1766l0.73-.37c2-1,2.93-4.46,2.07-7.46l-2.32-8.06c-0.86-3-3.11-4.63-5-3.73l-0.69.32c-1.94.89-2.89,4-2.09,7.13l2.16,8.29C616.65,1765.2,619,1767,621,1766Z" transform="translate(28.02)"/><path class="cls-4" d="M629.73,1760.75l0.68-.49c1.89-1.4,2.65-4.92,1.76-7.72l-2.39-7.51c-0.89-2.8-3.09-4.11-5-3l-0.67.39c-1.87,1.08-2.72,4.3-1.85,7.29l2.33,8C625.52,1760.68,627.83,1762.12,629.73,1760.75Z" transform="translate(28.02)"/><path class="cls-4" d="M637.75,1754l0.61-.61c1.72-1.73,2.34-5.27,1.48-7.76l-2.3-6.67c-0.86-2.49-3-3.55-4.75-2.23l-0.63.47c-1.76,1.3-2.51,4.53-1.62,7.3l2.38,7.45C633.82,1754.7,636,1755.69,637.75,1754Z" transform="translate(28.02)"/><path class="cls-4" d="M644.91,1745.79l0.54-.73a9.22,9.22,0,0,0,1.26-7.57l-2-5.55a2.55,2.55,0,0,0-4.34-1.17l-0.6.49c-1.68,1.38-2.33,4.6-1.48,7.05l2.28,6.58C641.38,1747.35,643.39,1747.81,644.91,1745.79Z" transform="translate(28.02)"/><polygon class="cls-5" points="234.6 1457.19 255.77 1580.87 290.3 1551.15 269.98 1588.14 353.64 1602.84 268.06 1624.63 289.65 1677.86 257.56 1649.42 250.34 1759.76 229.12 1637.82 192.36 1673.41 216.31 1629.17 126.09 1616.71 220.4 1595.24 191.79 1539.1 226.67 1572.64 234.6 1457.19"/><path class="cls-6" d="M695.58,471.83c7.07-3.19,16-6.89,26.56-10.45" transform="translate(28.02)"/><path class="cls-7" d="M778.73,448.8a251.35,251.35,0,0,1,95.53,7.75c44.87,12.5,135.1,37.65,170.28,136.71,24.66,69.43,18.65,164.83-28.52,222.44-37.8,46.16-113.55,82.1-154.24,33.68C832.05,814,828,741.73,853.74,702.57c40.4-61.4,134.16-10.75,143.37-5.61,87.46,48.84,119.77,170.41,131.4,214.15,4.69,17.66,65.72,259.26-49.25,416.47-58.12,79.48-134.19,100.48-157,106.39-93.15,24.1-137.47-23.07-241.13-8.14-43,6.19-80.18,20.74-110.72,37" transform="translate(28.02)"/><path class="cls-6" d="M545.27,1477.45c-8.62,5.43-16.51,10.84-23.63,16" transform="translate(28.02)"/></svg>